<svg xmlns="http://www.w3.org/2000/svg" version="1.1" xmlns:xlink="http://www.w3.org/1999/xlink" xmlns:svgjs="http://svgjs.dev/svgjs" viewBox="0 0 800 800" opacity="0.31"><g stroke-width="9.5" stroke="url(#gggyrate-grad)" fill="none"><path d="M399.9999084472656 -2235.600341796875L2682.500054297543 -917.8001898479681V1717.8001140498454L399.9999084472656 3035.6002659987525L-1882.5002374030116 1717.8001140498454V-917.8001898479681L399.9999084472656 -2235.600341796875Z " transform="rotate(2172.5, 400, 400)" opacity="0.14"></path><path d="M399.9999084472656 -2187.680419921875L2641.0000516457194 -893.8402707356756V1693.8400276367229L399.9999084472656 2987.6801768229225L-1841.0002347511884 1693.8400276367229V-893.8402707356756L399.9999084472656 -2187.680419921875Z " transform="rotate(2133, 400, 400)" opacity="0.65"></path><path d="M399.9999084472656 -2139.76025390625L2599.5000489938966 -869.8801074827579V1669.8801853642262L399.9999084472656 2939.7603317877183L-1799.5002320993651 1669.8801853642262V-869.8801074827579L399.9999084472656 -2139.76025390625Z " transform="rotate(2093.5, 400, 400)" opacity="0.44"></path><path d="M399.9999084472656 -2091.84033203125L2558.000046342073 -845.9201883704654V1645.9200989511037L399.9999084472656 2891.8402426118882L-1758.0002294475419 1645.9200989511037V-845.9201883704654L399.9999084472656 -2091.84033203125Z " transform="rotate(2054, 400, 400)" opacity="0.32"></path><path d="M399.9998779296875 -2043.920166015625L2516.500013172672 -821.9600251175477V1621.960256678607L399.9998779296875 2843.920397576684L-1716.5002573132967 1621.960256678607V-821.9600251175477L399.9998779296875 -2043.920166015625Z " transform="rotate(2014.5, 400, 400)" opacity="0.65"></path><path d="M399.9998779296875 -1996.000244140625L2475.000010520849 -798.0001060052552V1598.0001702654845L399.9998779296875 2796.000308400854L-1675.0002546614735 1598.0001702654845V-798.0001060052552L399.9998779296875 -1996.000244140625Z " transform="rotate(1975, 400, 400)" opacity="0.45"></path><path d="M400 -1948.080322265625L2433.500129939338 -774.0401868929625V1574.0400838523624L400 2748.080219225025L-1633.500129939338 1574.0400838523624V-774.0401868929625L400 -1948.080322265625Z " transform="rotate(1935.5, 400, 400)" opacity="0.26"></path><path d="M400 -1900.16015625L2392.0001272875143 -750.0800236400448V1550.0802415798653L400 2700.1603741898207L-1592.0001272875147 1550.0802415798653V-750.0800236400448L400 -1900.16015625Z " transform="rotate(1896, 400, 400)" opacity="0.22"></path><path d="M400 -1852.240234375L2350.5001246356915 -726.1201045277523V1526.1201551667432L400 2652.2402850139906L-1550.5001246356915 1526.1201551667432V-726.1201045277523L400 -1852.240234375Z " transform="rotate(1856.5, 400, 400)" opacity="0.74"></path><path d="M400 -1804.3203125L2309.000121983868 -702.1601854154596V1502.160068753621L400 2604.3201958381615L-1509.0001219838682 1502.160068753621V-702.1601854154596L400 -1804.3203125Z " transform="rotate(1817, 400, 400)" opacity="0.21"></path><path d="M400 -1756.400146484375L2267.500119332045 -678.2000221625422V1478.2002264811235L400 2556.4003508029564L-1467.500119332045 1478.2002264811235V-678.2000221625422L400 -1756.400146484375Z " transform="rotate(1777.5, 400, 400)" opacity="0.87"></path><path d="M400 -1708.480224609375L2226.0001166802217 -654.2401030502494V1454.240140068002L400 2508.480261627127L-1426.0001166802217 1454.240140068002V-654.2401030502494L400 -1708.480224609375Z " transform="rotate(1738, 400, 400)" opacity="0.19"></path><path d="M400 -1660.560302734375L2184.5001140283985 -630.280183937957V1430.2800536548793L400 2460.560172451297L-1384.5001140283985 1430.2800536548793V-630.280183937957L400 -1660.560302734375Z " transform="rotate(1698.5, 400, 400)" opacity="0.63"></path><path d="M400 -1612.64013671875L2143.0001113765757 -606.3200206850393V1406.3202113823818L400 2412.640327416093L-1343.0001113765752 1406.3202113823818V-606.3200206850393L400 -1612.64013671875Z " transform="rotate(1659, 400, 400)" opacity="0.14"></path><path d="M400 -1564.72021484375L2101.5001087247524 -582.3601015727468V1382.3601249692597L400 2364.720238240263L-1301.500108724752 1382.3601249692597V-582.3601015727468L400 -1564.72021484375Z " transform="rotate(1619.5, 400, 400)" opacity="0.12"></path><path d="M399.9999694824219 -1516.8001708984375L2060.000075555351 -558.4000603901418V1358.4001606264505L399.9999694824219 2316.800271134746L-1260.000136590507 1358.4001606264505V-558.4000603901418L399.9999694824219 -1516.8001708984375Z " transform="rotate(1580, 400, 400)" opacity="0.21"></path><path d="M399.9999694824219 -1468.8802490234375L2018.5000729035278 -534.4401412778489V1334.440074213328L399.9999694824219 2268.8801819589166L-1218.5001339386838 1334.440074213328V-534.4401412778489L399.9999694824219 -1468.8802490234375Z " transform="rotate(1540.5, 400, 400)" opacity="0.74"></path><path d="M399.9999694824219 -1420.960205078125L1977.0000702517045 -510.48010009524387V1310.4801098705184L399.9999694824219 2220.960214853399L-1177.0001312868606 1310.4801098705184V-510.48010009524387L399.9999694824219 -1420.960205078125Z " transform="rotate(1501, 400, 400)" opacity="0.34"></path><path d="M399.9999694824219 -1373.0401611328125L1935.5000675998813 -486.5200589126389V1286.5201455277088L399.9999694824219 2173.0402477478824L-1135.5001286350373 1286.5201455277088V-486.5200589126389L399.9999694824219 -1373.0401611328125Z " transform="rotate(1461.5, 400, 400)" opacity="0.23"></path><path d="M399.9999694824219 -1325.1202392578125L1894.000064948058 -462.5601398003462V1262.5600591145862L399.9999694824219 2125.120158572053L-1094.000125983214 1262.5600591145862V-462.5601398003462L399.9999694824219 -1325.1202392578125Z " transform="rotate(1422, 400, 400)" opacity="0.23"></path><path d="M399.9999694824219 -1277.2001953125L1852.5000622962348 -438.60009861774097V1238.6000947717766L399.9999694824219 2077.2001914665357L-1052.5001233313908 1238.6000947717766V-438.60009861774097L399.9999694824219 -1277.2001953125Z " transform="rotate(1382.5, 400, 400)" opacity="0.53"></path><path d="M399.9999694824219 -1229.2801513671875L1811.0000596444115 -414.640057435136V1214.640130428967L399.9999694824219 2029.2802243610186L-1011.0001206795677 1214.640130428967V-414.640057435136L399.9999694824219 -1229.2801513671875Z " transform="rotate(1343, 400, 400)" opacity="0.80"></path><path d="M399.9999694824219 -1181.3602294921875L1769.5000569925883 -390.6801383228435V1190.6800440158445L399.9999694824219 1981.360135185189L-969.5001180277444 1190.6800440158445V-390.6801383228435L399.9999694824219 -1181.3602294921875Z " transform="rotate(1303.5, 400, 400)" opacity="0.50"></path><path d="M399.9999694824219 -1133.440185546875L1728.000054340765 -366.7200971402383V1166.720079673035L399.9999694824219 1933.4401680796718L-928.0001153759213 1166.720079673035V-366.7200971402383L399.9999694824219 -1133.440185546875Z " transform="rotate(1264, 400, 400)" opacity="0.09"></path><path d="M399.9999694824219 -1085.5201416015625L1686.5000516889418 -342.7600559576332V1142.7601153302253L399.9999694824219 1885.5202009741547L-886.500112724098 1142.7601153302253V-342.7600559576332L399.9999694824219 -1085.5201416015625Z " transform="rotate(1224.5, 400, 400)" opacity="0.17"></path><path d="M399.9999694824219 -1037.6002197265625L1645.0000490371185 -318.8001368453406V1118.8000289171032L399.9999694824219 1837.600111798325L-845.0001100722748 1118.8000289171032V-318.8001368453406L399.9999694824219 -1037.6002197265625Z " transform="rotate(1185, 400, 400)" opacity="0.53"></path><path d="M399.9999694824219 -989.68017578125L1603.5000463852953 -294.8400956627355V1094.8400645742936L399.9999694824219 1789.680144692808L-803.5001074204515 1094.8400645742936V-294.8400956627355L399.9999694824219 -989.68017578125Z " transform="rotate(1145.5, 400, 400)" opacity="0.86"></path><path d="M399.99993896484375 -941.7601318359375L1562.000013215894 -270.8800544801304V1070.880100231484L399.99993896484375 1741.7601775872909L-762.0001352862064 1070.880100231484V-270.8800544801304L399.99993896484375 -941.7601318359375Z " transform="rotate(1106, 400, 400)" opacity="0.60"></path><path d="M399.99993896484375 -893.8402099609375L1520.5000105640706 -246.92013536783782V1046.9200138183614L399.99993896484375 1693.8400884114612L-720.5001326343832 1046.9200138183614V-246.92013536783782L399.99993896484375 -893.8402099609375Z " transform="rotate(1066.5, 400, 400)" opacity="0.44"></path><path d="M399.99993896484375 -845.920166015625L1479.0000079122474 -222.96009418523272V1022.9600494755518L399.99993896484375 1645.9201213059441L-679.00012998256 1022.9600494755518V-222.96009418523272L399.99993896484375 -845.920166015625Z " transform="rotate(1027, 400, 400)" opacity="0.37"></path><path d="M399.99993896484375 -798.0001220703125L1437.5000052604246 -199.00005300262762V999.0000851327422L399.99993896484375 1598.000154200427L-637.5001273307369 999.0000851327422V-199.00005300262762L399.99993896484375 -798.0001220703125Z " transform="rotate(987.5, 400, 400)" opacity="0.96"></path><path d="M399.99993896484375 -750.080078125L1396.0000026086009 -175.04001182002241V975.0401207899326L399.99993896484375 1550.0801870949103L-596.0001246789136 975.0401207899326V-175.04001182002241L399.99993896484375 -750.080078125Z " transform="rotate(948, 400, 400)" opacity="0.92"></path><path d="M400.00006103515625 -702.16015625L1354.5001220270906 -151.08009270772982V951.0800343768105L400.00006103515625 1502.1600979190807L-554.4999999567779 951.0800343768105V-151.08009270772982L400.00006103515625 -702.16015625Z " transform="rotate(908.5, 400, 400)" opacity="0.58"></path><path d="M400.00006103515625 -654.2401123046875L1313.0001193752669 -127.12005152512472V927.120070034001L400.00006103515625 1454.2401308135636L-512.9999973049546 927.120070034001V-127.12005152512472L400.00006103515625 -654.2401123046875Z " transform="rotate(869, 400, 400)" opacity="0.68"></path><path d="M400 -606.320068359375L1271.5000556882878 -103.16001034251963V903.1601056911909L400 1406.3201637080465L-471.50005568828766 903.1601056911909V-103.16001034251963L400 -606.320068359375Z " transform="rotate(829.5, 400, 400)" opacity="0.22"></path><path d="M400 -558.400146484375L1230.0000530364646 -79.20009123022714V879.200019278069L400 1358.4000745322164L-430.0000530364644 879.200019278069V-79.20009123022714L400 -558.400146484375Z " transform="rotate(790, 400, 400)" opacity="0.22"></path><path d="M400 -510.4801025390625L1188.5000503846413 -55.240050047621935V855.2400549352592L400 1310.4801074266998L-388.5000503846412 855.2400549352592V-55.240050047621935L400 -510.4801025390625Z " transform="rotate(750.5, 400, 400)" opacity="0.41"></path><path d="M400 -462.56011962890625L1147.000047732818 -31.28006990017309V831.2800295572931L400 1262.5600792860264L-347.00004773281796 831.2800295572931V-31.28006990017309L400 -462.56011962890625Z " transform="rotate(711, 400, 400)" opacity="0.95"></path><path d="M399.9999694824219 -414.64007568359375L1105.5000145634167 -7.320028717567993V807.3200652144835L399.9999694824219 1214.6401121805093L-305.5000755985729 807.3200652144835V-7.320028717567993L399.9999694824219 -414.64007568359375Z " transform="rotate(671.5, 400, 400)" opacity="0.41"></path><path d="M399.9999694824219 -366.7200927734375L1064.0000119115934 16.639951429880853V783.3600398365174L399.9999694824219 1166.720084039836L-264.00007294674964 783.3600398365174V16.639951429880853L399.9999694824219 -366.7200927734375Z " transform="rotate(632, 400, 400)" opacity="0.23"></path><path d="M399.9999694824219 -318.80010986328125L1022.5000092597702 40.5999315773297V759.4000144585516L399.9999694824219 1118.8000558991625L-222.50007029492645 759.4000144585516V40.5999315773297L399.9999694824219 -318.80010986328125Z " transform="rotate(592.5, 400, 400)" opacity="0.92"></path><path d="M399.9999694824219 -270.88006591796875L981.000006607947 64.5599727599348V735.440050115742L399.9999694824219 1070.8800887936454L-181.00006764310325 735.440050115742V64.5599727599348L399.9999694824219 -270.88006591796875Z " transform="rotate(553, 400, 400)" opacity="0.28"></path><path d="M399.9999694824219 -222.9600830078125L939.5000039561237 88.51995290738364V711.4800247377759L399.9999694824219 1022.9600606529721L-139.50006499128 711.4800247377759V88.51995290738364L399.9999694824219 -222.9600830078125Z " transform="rotate(513.5, 400, 400)" opacity="0.60"></path><path d="M399.9999694824219 -175.0400390625L898.0000013043004 112.47999408998885V687.5200603949663L399.9999694824219 975.0400935474552L-98.0000623394568 687.5200603949663V112.47999408998885L399.9999694824219 -175.0400390625Z " transform="rotate(474, 400, 400)" opacity="0.45"></path><path d="M399.9999694824219 -127.12005615234375L856.4999986524772 136.43997423743758V663.5600350170005L399.9999694824219 927.1200654067818L-56.50005968763355 663.5600350170005V136.43997423743758L399.9999694824219 -127.12005615234375Z " transform="rotate(434.5, 400, 400)" opacity="0.63"></path><path d="M399.9999694824219 -79.2000732421875L814.9999960006542 160.39995438488643V639.6000096390345L399.9999694824219 879.2000372661082L-15.000057035810357 639.6000096390345V160.39995438488643L399.9999694824219 -79.2000732421875Z " transform="rotate(395, 400, 400)" opacity="0.86"></path><path d="M400 -31.280029296875L773.500023866409 184.35999556749158V615.6400452962247L400 831.2800701605913L26.49997613359102 615.6400452962247V184.35999556749158L400 -31.280029296875Z " transform="rotate(355.5, 400, 400)" opacity="0.11"></path><path d="M400 16.63995361328125L732.0000212145858 208.31997571494043V591.6800199182587L400 783.360042019918L67.99997878541421 591.6800199182587V208.31997571494043L400 16.63995361328125Z " transform="rotate(316, 400, 400)" opacity="0.39"></path><path d="M400 64.55996704101562L690.5000185627625 232.2799863799674V567.720025057871L400 735.4400443968227L109.49998143723747 567.720025057871V232.2799863799674L400 64.55996704101562Z " transform="rotate(276.5, 400, 400)" opacity="0.75"></path><path d="M400.00001525878906 112.47998046875L649.0000311697283 256.2399970449944V543.7600301974832L400.00001525878906 687.5200467737276L150.99999934784972 543.7600301974832V256.2399970449944L400.00001525878906 112.47998046875Z " transform="rotate(237, 400, 400)" opacity="0.09"></path><path d="M400 160.39996337890625L607.5000132591161 280.1999771924432V519.8000048195172L400 639.6000186330541L192.4999867408839 519.8000048195172V280.1999771924432L400 160.39996337890625Z " transform="rotate(197.5, 400, 400)" opacity="0.54"></path><path d="M400 208.31997680664062L566.0000106072929 304.15998785747024V495.84000995912936L400 591.680021009959L233.9999893927071 495.84000995912936V304.15998785747024L400 208.31997680664062Z " transform="rotate(158, 400, 400)" opacity="0.47"></path><path d="M400 256.239990234375L524.5000079554696 328.1199985224972V471.8800150987416L400 543.7600233868638L275.49999204453036 471.8800150987416V328.1199985224972L400 256.239990234375Z " transform="rotate(118.5, 400, 400)" opacity="0.20"></path><path d="M400 304.1599884033203L483.00000530364645 352.0799939287351V447.9200049795647L400 495.8400105049795L316.99999469635355 447.9200049795647V352.0799939287351L400 304.1599884033203Z " transform="rotate(79, 400, 400)" opacity="0.62"></path><path d="M400 352.0800018310547L441.50000265182325 376.0400045937621V423.9600101191769L400 447.9200128818843L358.4999973481768 423.9600101191769V376.0400045937621L400 352.0800018310547Z " transform="rotate(39.5, 400, 400)" opacity="0.50"></path></g><defs><linearGradient x1="50%" y1="0%" x2="50%" y2="100%" id="gggyrate-grad"><stop stop-color="hsl(0, 0%, 0%)" stop-opacity="1" offset="0%"></stop><stop stop-color="hsl(105, 100%, 50%)" stop-opacity="1" offset="100%"></stop></linearGradient></defs></svg>