<?xml version="1.0" standalone="no"?><svg xmlns:xlink="http://www.w3.org/1999/xlink" xmlns="http://www.w3.org/2000/svg" viewBox="0 0 1000 416.6592128801431" preserveAspectRatio="xMaxYMax slice"><g transform="scale(0.8944543828264758)"><rect x="0" y="0" width="1118" height="465.83333333333337" fill="#ffffff"/><rect x="37.26666666666667" y="37.26666666666667" width="18.633333333333326" height="18.633333333333326" fill="#ffffff"/><g transform="translate(37.27,37.27) scale(0.466) rotate(0)"><path d="M10 0H20L0 20V10L10 0Z" fill="#adc5ae"/><path d="M20 10V20H10L20 10Z" fill="#adc5ae"/></g><g transform="translate(46.58,37.27) scale(0.466) rotate(0)"><path d="M10 0H20L0 20V10L10 0Z" fill="#d8e4d9"/><path d="M20 10V20H10L20 10Z" fill="#d8e4d9"/></g><g transform="translate(37.27,46.58) scale(0.466) rotate(0)"><path d="M10 0H20L0 20V10L10 0Z" fill="#316f33"/><path d="M20 10V20H10L20 10Z" fill="#316f33"/></g><g transform="translate(46.58,46.58) scale(0.466) rotate(0)"><path d="M10 0H20L0 20V10L10 0Z" fill="#608f61"/><path d="M20 10V20H10L20 10Z" fill="#608f61"/></g><rect x="130.43333333333334" y="37.26666666666667" width="18.633333333333326" height="18.633333333333326" fill="#ffffff"/><g transform="translate(130.43,37.27) scale(0.466) rotate(0)"><path d="M10 0H20L0 20V10L10 0Z" fill="#ffe9cf"/><path d="M20 10V20H10L20 10Z" fill="#ffe9cf"/></g><g transform="translate(139.75,37.27) scale(0.466) rotate(0)"><path d="M10 0H20L0 20V10L10 0Z" fill="#88ab89"/><path d="M20 10V20H10L20 10Z" fill="#88ab89"/></g><g transform="translate(130.43,46.58) scale(0.466) rotate(0)"><path d="M10 0H20L0 20V10L10 0Z" fill="#ffdfba"/><path d="M20 10V20H10L20 10Z" fill="#ffdfba"/></g><g transform="translate(139.75,46.58) scale(0.466) rotate(0)"><path d="M10 0H20L0 20V10L10 0Z" fill="#6e996f"/><path d="M20 10V20H10L20 10Z" fill="#6e996f"/></g><rect x="223.60000000000002" y="37.26666666666667" width="18.633333333333326" height="18.633333333333326" fill="#ffffff"/><g transform="translate(223.6,37.27) scale(0.466) rotate(0)"><path d="M10 0H20L0 20V10L10 0Z" fill="#d3e0d3"/><path d="M20 10V20H10L20 10Z" fill="#d3e0d3"/></g><g transform="translate(232.92,37.27) scale(0.466) rotate(0)"><path d="M10 0H20L0 20V10L10 0Z" fill="#9ab89a"/><path d="M20 10V20H10L20 10Z" fill="#9ab89a"/></g><g transform="translate(223.6,46.58) scale(0.466) rotate(0)"><path d="M10 0H20L0 20V10L10 0Z" fill="#ffdcb4"/><path d="M20 10V20H10L20 10Z" fill="#ffdcb4"/></g><g transform="translate(232.92,46.58) scale(0.466) rotate(0)"><path d="M10 0H20L0 20V10L10 0Z" fill="#ffddb5"/><path d="M20 10V20H10L20 10Z" fill="#ffddb5"/></g><rect x="316.76666666666665" y="37.26666666666667" width="18.633333333333326" height="18.633333333333326" fill="#ffffff"/><g transform="translate(316.77,37.27) scale(0.466) rotate(0)"><path d="M10 0H20L0 20V10L10 0Z" fill="#38733a"/><path d="M20 10V20H10L20 10Z" fill="#38733a"/></g><g transform="translate(326.08,37.27) scale(0.466) rotate(0)"><path d="M10 0H20L0 20V10L10 0Z" fill="#f9fbf9"/><path d="M20 10V20H10L20 10Z" fill="#f9fbf9"/></g><g transform="translate(316.77,46.58) scale(0.466) rotate(0)"><path d="M10 0H20L0 20V10L10 0Z" fill="#87ab88"/><path d="M20 10V20H10L20 10Z" fill="#87ab88"/></g><g transform="translate(326.08,46.58) scale(0.466) rotate(0)"><path d="M10 0H20L0 20V10L10 0Z" fill="#92b293"/><path d="M20 10V20H10L20 10Z" fill="#92b293"/></g><rect x="409.93333333333334" y="37.26666666666667" width="18.633333333333326" height="18.633333333333326" fill="#ffffff"/><g transform="translate(409.93,37.27) scale(0.466) rotate(0)"><path d="M10 0H20L0 20V10L10 0Z" fill="#fffffe"/><path d="M20 10V20H10L20 10Z" fill="#fffffe"/></g><g transform="translate(419.25,37.27) scale(0.466) rotate(0)"><path d="M10 0H20L0 20V10L10 0Z" fill="#ffedd9"/><path d="M20 10V20H10L20 10Z" fill="#ffedd9"/></g><g transform="translate(409.93,46.58) scale(0.466) rotate(0)"><path d="M10 0H20L0 20V10L10 0Z" fill="#ffd19c"/><path d="M20 10V20H10L20 10Z" fill="#ffd19c"/></g><g transform="translate(419.25,46.58) scale(0.466) rotate(0)"><path d="M10 0H20L0 20V10L10 0Z" fill="#9bb99b"/><path d="M20 10V20H10L20 10Z" fill="#9bb99b"/></g><rect x="503.1" y="37.26666666666667" width="18.633333333333326" height="18.633333333333326" fill="#ffffff"/><g transform="translate(503.1,37.27) scale(0.466) rotate(0)"><path d="M10 0H20L0 20V10L10 0Z" fill="#d1dfd1"/><path d="M20 10V20H10L20 10Z" fill="#d1dfd1"/></g><g transform="translate(512.42,37.27) scale(0.466) rotate(0)"><path d="M10 0H20L0 20V10L10 0Z" fill="#5b8c5c"/><path d="M20 10V20H10L20 10Z" fill="#5b8c5c"/></g><g transform="translate(503.1,46.58) scale(0.466) rotate(0)"><path d="M10 0H20L0 20V10L10 0Z" fill="#ffecd7"/><path d="M20 10V20H10L20 10Z" fill="#ffecd7"/></g><g transform="translate(512.42,46.58) scale(0.466) rotate(0)"><path d="M10 0H20L0 20V10L10 0Z" fill="#ffd4a2"/><path d="M20 10V20H10L20 10Z" fill="#ffd4a2"/></g><rect x="596.2666666666667" y="37.26666666666667" width="18.633333333333326" height="18.633333333333326" fill="#ffffff"/><g transform="translate(596.27,37.27) scale(0.466) rotate(0)"><path d="M10 0H20L0 20V10L10 0Z" fill="#ffcf97"/><path d="M20 10V20H10L20 10Z" fill="#ffcf97"/></g><g transform="translate(605.58,37.27) scale(0.466) rotate(0)"><path d="M10 0H20L0 20V10L10 0Z" fill="#ffebd4"/><path d="M20 10V20H10L20 10Z" fill="#ffebd4"/></g><g transform="translate(596.27,46.58) scale(0.466) rotate(0)"><path d="M10 0H20L0 20V10L10 0Z" fill="#ffebd5"/><path d="M20 10V20H10L20 10Z" fill="#ffebd5"/></g><g transform="translate(605.58,46.58) scale(0.466) rotate(0)"><path d="M10 0H20L0 20V10L10 0Z" fill="#c1d4c2"/><path d="M20 10V20H10L20 10Z" fill="#c1d4c2"/></g><rect x="689.4333333333334" y="37.26666666666667" width="18.633333333333326" height="18.633333333333326" fill="#ffffff"/><g transform="translate(689.43,37.27) scale(0.466) rotate(0)"><path d="M10 0H20L0 20V10L10 0Z" fill="#ffd19c"/><path d="M20 10V20H10L20 10Z" fill="#ffd19c"/></g><g transform="translate(698.75,37.27) scale(0.466) rotate(0)"><path d="M10 0H20L0 20V10L10 0Z" fill="#d9e4da"/><path d="M20 10V20H10L20 10Z" fill="#d9e4da"/></g><g transform="translate(689.43,46.58) scale(0.466) rotate(0)"><path d="M10 0H20L0 20V10L10 0Z" fill="#639264"/><path d="M20 10V20H10L20 10Z" fill="#639264"/></g><g transform="translate(698.75,46.58) scale(0.466) rotate(0)"><path d="M10 0H20L0 20V10L10 0Z" fill="#ffcd92"/><path d="M20 10V20H10L20 10Z" fill="#ffcd92"/></g><rect x="782.6" y="37.26666666666667" width="18.633333333333326" height="18.633333333333326" fill="#ffffff"/><g transform="translate(782.6,37.27) scale(0.466) rotate(0)"><path d="M10 0H20L0 20V10L10 0Z" fill="#80a681"/><path d="M20 10V20H10L20 10Z" fill="#80a681"/></g><g transform="translate(791.92,37.27) scale(0.466) rotate(0)"><path d="M10 0H20L0 20V10L10 0Z" fill="#ffd29d"/><path d="M20 10V20H10L20 10Z" fill="#ffd29d"/></g><g transform="translate(782.6,46.58) scale(0.466) rotate(0)"><path d="M10 0H20L0 20V10L10 0Z" fill="#84a985"/><path d="M20 10V20H10L20 10Z" fill="#84a985"/></g><g transform="translate(791.92,46.58) scale(0.466) rotate(0)"><path d="M10 0H20L0 20V10L10 0Z" fill="#c2d4c3"/><path d="M20 10V20H10L20 10Z" fill="#c2d4c3"/></g><rect x="875.7666666666667" y="37.26666666666667" width="18.633333333333326" height="18.633333333333326" fill="#ffffff"/><g transform="translate(875.77,37.27) scale(0.466) rotate(0)"><path d="M10 0H20L0 20V10L10 0Z" fill="#b3cab4"/><path d="M20 10V20H10L20 10Z" fill="#b3cab4"/></g><g transform="translate(885.08,37.27) scale(0.466) rotate(0)"><path d="M10 0H20L0 20V10L10 0Z" fill="#c2d5c3"/><path d="M20 10V20H10L20 10Z" fill="#c2d5c3"/></g><g transform="translate(875.77,46.58) scale(0.466) rotate(0)"><path d="M10 0H20L0 20V10L10 0Z" fill="#e7eee7"/><path d="M20 10V20H10L20 10Z" fill="#e7eee7"/></g><g transform="translate(885.08,46.58) scale(0.466) rotate(0)"><path d="M10 0H20L0 20V10L10 0Z" fill="#6e996f"/><path d="M20 10V20H10L20 10Z" fill="#6e996f"/></g><rect x="968.9333333333334" y="37.26666666666667" width="18.633333333333326" height="18.633333333333326" fill="#ffffff"/><g transform="translate(968.93,37.27) scale(0.466) rotate(0)"><path d="M10 0H20L0 20V10L10 0Z" fill="#fff5e9"/><path d="M20 10V20H10L20 10Z" fill="#fff5e9"/></g><g transform="translate(978.25,37.27) scale(0.466) rotate(0)"><path d="M10 0H20L0 20V10L10 0Z" fill="#3d773f"/><path d="M20 10V20H10L20 10Z" fill="#3d773f"/></g><g transform="translate(968.93,46.58) scale(0.466) rotate(0)"><path d="M10 0H20L0 20V10L10 0Z" fill="#2d6c2f"/><path d="M20 10V20H10L20 10Z" fill="#2d6c2f"/></g><g transform="translate(978.25,46.58) scale(0.466) rotate(0)"><path d="M10 0H20L0 20V10L10 0Z" fill="#88ac89"/><path d="M20 10V20H10L20 10Z" fill="#88ac89"/></g><rect x="1062.1000000000001" y="37.26666666666667" width="18.633333333333326" height="18.633333333333326" fill="#ffffff"/><g transform="translate(1062.1,37.27) scale(0.466) rotate(0)"><path d="M10 0H20L0 20V10L10 0Z" fill="#ffdfba"/><path d="M20 10V20H10L20 10Z" fill="#ffdfba"/></g><g transform="translate(1071.42,37.27) scale(0.466) rotate(0)"><path d="M10 0H20L0 20V10L10 0Z" fill="#ffd7a8"/><path d="M20 10V20H10L20 10Z" fill="#ffd7a8"/></g><g transform="translate(1062.1,46.58) scale(0.466) rotate(0)"><path d="M10 0H20L0 20V10L10 0Z" fill="#fff1e1"/><path d="M20 10V20H10L20 10Z" fill="#fff1e1"/></g><g transform="translate(1071.42,46.58) scale(0.466) rotate(0)"><path d="M10 0H20L0 20V10L10 0Z" fill="#ffd9ad"/><path d="M20 10V20H10L20 10Z" fill="#ffd9ad"/></g><rect x="37.26666666666667" y="130.43333333333334" width="18.633333333333326" height="18.633333333333326" fill="#ffffff"/><g transform="translate(37.27,130.43) scale(0.466) rotate(0)"><path d="M10 0H20L0 20V10L10 0Z" fill="#ffd29e"/><path d="M20 10V20H10L20 10Z" fill="#ffd29e"/></g><g transform="translate(46.58,130.43) scale(0.466) rotate(0)"><path d="M10 0H20L0 20V10L10 0Z" fill="#ffefdc"/><path d="M20 10V20H10L20 10Z" fill="#ffefdc"/></g><g transform="translate(37.27,139.75) scale(0.466) rotate(0)"><path d="M10 0H20L0 20V10L10 0Z" fill="#2c6b2d"/><path d="M20 10V20H10L20 10Z" fill="#2c6b2d"/></g><g transform="translate(46.58,139.75) scale(0.466) rotate(0)"><path d="M10 0H20L0 20V10L10 0Z" fill="#e0eae1"/><path d="M20 10V20H10L20 10Z" fill="#e0eae1"/></g><rect x="126.85573333333335" y="126.85573333333335" width="25.788533333333334" height="25.788533333333334" fill="#ffffff"/><g transform="translate(126.86,126.86) scale(0.6445000000000001) rotate(0)"><path d="M10 0H20L0 20V10L10 0Z" fill="#ffd099"/><path d="M20 10V20H10L20 10Z" fill="#ffd099"/></g><g transform="translate(139.75,126.86) scale(0.6445000000000001) rotate(0)"><path d="M10 0H20L0 20V10L10 0Z" fill="#d3e0d3"/><path d="M20 10V20H10L20 10Z" fill="#d3e0d3"/></g><g transform="translate(126.86,139.75) scale(0.6445000000000001) rotate(0)"><path d="M10 0H20L0 20V10L10 0Z" fill="#2c6b2e"/><path d="M20 10V20H10L20 10Z" fill="#2c6b2e"/></g><g transform="translate(139.75,139.75) scale(0.6445000000000001) rotate(0)"><path d="M10 0H20L0 20V10L10 0Z" fill="#82a783"/><path d="M20 10V20H10L20 10Z" fill="#82a783"/></g><rect x="216.44480000000001" y="123.27813333333334" width="32.943733333333334" height="32.943733333333334" fill="#ffffff"/><g transform="translate(216.44,123.28) scale(0.8234999999999999) rotate(0)"><path d="M10 0H20L0 20V10L10 0Z" fill="#ffe2c0"/><path d="M20 10V20H10L20 10Z" fill="#ffe2c0"/></g><g transform="translate(232.92,123.28) scale(0.8234999999999999) rotate(0)"><path d="M10 0H20L0 20V10L10 0Z" fill="#175c19"/><path d="M20 10V20H10L20 10Z" fill="#175c19"/></g><g transform="translate(216.44,139.75) scale(0.8234999999999999) rotate(0)"><path d="M10 0H20L0 20V10L10 0Z" fill="#ffcd93"/><path d="M20 10V20H10L20 10Z" fill="#ffcd93"/></g><g transform="translate(232.92,139.75) scale(0.8234999999999999) rotate(0)"><path d="M10 0H20L0 20V10L10 0Z" fill="#ffe3c2"/><path d="M20 10V20H10L20 10Z" fill="#ffe3c2"/></g><rect x="306.03386666666665" y="119.70053333333334" width="40.098933333333335" height="40.098933333333335" fill="#ffffff"/><g transform="translate(306.03,119.7) scale(1.0025) rotate(0)"><path d="M10 0H20L0 20V10L10 0Z" fill="#fff0e0"/><path d="M20 10V20H10L20 10Z" fill="#fff0e0"/></g><g transform="translate(326.08,119.7) scale(1.0025) rotate(0)"><path d="M10 0H20L0 20V10L10 0Z" fill="#dde7dd"/><path d="M20 10V20H10L20 10Z" fill="#dde7dd"/></g><g transform="translate(306.03,139.75) scale(1.0025) rotate(0)"><path d="M10 0H20L0 20V10L10 0Z" fill="#ffdab0"/><path d="M20 10V20H10L20 10Z" fill="#ffdab0"/></g><g transform="translate(326.08,139.75) scale(1.0025) rotate(0)"><path d="M10 0H20L0 20V10L10 0Z" fill="#ffd39f"/><path d="M20 10V20H10L20 10Z" fill="#ffd39f"/></g><rect x="395.6229333333334" y="116.12293333333334" width="47.254133333333336" height="47.254133333333336" fill="#ffffff"/><g transform="translate(395.62,116.12) scale(1.1815) rotate(0)"><path d="M10 0H20L0 20V10L10 0Z" fill="#3d773f"/><path d="M20 10V20H10L20 10Z" fill="#3d773f"/></g><g transform="translate(419.25,116.12) scale(1.1815) rotate(0)"><path d="M10 0H20L0 20V10L10 0Z" fill="#ffd7aa"/><path d="M20 10V20H10L20 10Z" fill="#ffd7aa"/></g><g transform="translate(395.62,139.75) scale(1.1815) rotate(0)"><path d="M10 0H20L0 20V10L10 0Z" fill="#ffdeb8"/><path d="M20 10V20H10L20 10Z" fill="#ffdeb8"/></g><g transform="translate(419.25,139.75) scale(1.1815) rotate(0)"><path d="M10 0H20L0 20V10L10 0Z" fill="#ffe4c5"/><path d="M20 10V20H10L20 10Z" fill="#ffe4c5"/></g><rect x="485.21200000000005" y="112.54533333333335" width="54.40933333333333" height="54.40933333333333" fill="#ffffff"/><g transform="translate(485.21,112.55) scale(1.3599999999999999) rotate(0)"><path d="M10 0H20L0 20V10L10 0Z" fill="#578959"/><path d="M20 10V20H10L20 10Z" fill="#578959"/></g><g transform="translate(512.42,112.55) scale(1.3599999999999999) rotate(0)"><path d="M10 0H20L0 20V10L10 0Z" fill="#ffeed9"/><path d="M20 10V20H10L20 10Z" fill="#ffeed9"/></g><g transform="translate(485.21,139.75) scale(1.3599999999999999) rotate(0)"><path d="M10 0H20L0 20V10L10 0Z" fill="#bbcfbb"/><path d="M20 10V20H10L20 10Z" fill="#bbcfbb"/></g><g transform="translate(512.42,139.75) scale(1.3599999999999999) rotate(0)"><path d="M10 0H20L0 20V10L10 0Z" fill="#bfd2c0"/><path d="M20 10V20H10L20 10Z" fill="#bfd2c0"/></g><rect x="578.3786666666666" y="112.54533333333335" width="54.40933333333333" height="54.40933333333333" fill="#ffffff"/><g transform="translate(578.38,112.55) scale(1.3599999999999999) rotate(0)"><path d="M10 0H20L0 20V10L10 0Z" fill="#ffefdc"/><path d="M20 10V20H10L20 10Z" fill="#ffefdc"/></g><g transform="translate(605.58,112.55) scale(1.3599999999999999) rotate(0)"><path d="M10 0H20L0 20V10L10 0Z" fill="#ffebd4"/><path d="M20 10V20H10L20 10Z" fill="#ffebd4"/></g><g transform="translate(578.38,139.75) scale(1.3599999999999999) rotate(0)"><path d="M10 0H20L0 20V10L10 0Z" fill="#ffdbb1"/><path d="M20 10V20H10L20 10Z" fill="#ffdbb1"/></g><g transform="translate(605.58,139.75) scale(1.3599999999999999) rotate(0)"><path d="M10 0H20L0 20V10L10 0Z" fill="#dee8df"/><path d="M20 10V20H10L20 10Z" fill="#dee8df"/></g><rect x="671.5453333333334" y="112.54533333333335" width="54.40933333333333" height="54.40933333333333" fill="#ffffff"/><g transform="translate(671.55,112.55) scale(1.3599999999999999) rotate(0)"><path d="M10 0H20L0 20V10L10 0Z" fill="#c1d3c1"/><path d="M20 10V20H10L20 10Z" fill="#c1d3c1"/></g><g transform="translate(698.75,112.55) scale(1.3599999999999999) rotate(0)"><path d="M10 0H20L0 20V10L10 0Z" fill="#497f4b"/><path d="M20 10V20H10L20 10Z" fill="#497f4b"/></g><g transform="translate(671.55,139.75) scale(1.3599999999999999) rotate(0)"><path d="M10 0H20L0 20V10L10 0Z" fill="#598b5a"/><path d="M20 10V20H10L20 10Z" fill="#598b5a"/></g><g transform="translate(698.75,139.75) scale(1.3599999999999999) rotate(0)"><path d="M10 0H20L0 20V10L10 0Z" fill="#ffecd6"/><path d="M20 10V20H10L20 10Z" fill="#ffecd6"/></g><rect x="768.2896000000001" y="116.12293333333334" width="47.254133333333336" height="47.254133333333336" fill="#ffffff"/><g transform="translate(768.29,116.12) scale(1.1815) rotate(0)"><path d="M10 0H20L0 20V10L10 0Z" fill="#9cba9d"/><path d="M20 10V20H10L20 10Z" fill="#9cba9d"/></g><g transform="translate(791.92,116.12) scale(1.1815) rotate(0)"><path d="M10 0H20L0 20V10L10 0Z" fill="#6f9a70"/><path d="M20 10V20H10L20 10Z" fill="#6f9a70"/></g><g transform="translate(768.29,139.75) scale(1.1815) rotate(0)"><path d="M10 0H20L0 20V10L10 0Z" fill="#ffd19c"/><path d="M20 10V20H10L20 10Z" fill="#ffd19c"/></g><g transform="translate(791.92,139.75) scale(1.1815) rotate(0)"><path d="M10 0H20L0 20V10L10 0Z" fill="#417a43"/><path d="M20 10V20H10L20 10Z" fill="#417a43"/></g><rect x="865.0338666666667" y="119.70053333333334" width="40.098933333333335" height="40.098933333333335" fill="#ffffff"/><g transform="translate(865.03,119.7) scale(1.0025) rotate(0)"><path d="M10 0H20L0 20V10L10 0Z" fill="#8caf8d"/><path d="M20 10V20H10L20 10Z" fill="#8caf8d"/></g><g transform="translate(885.08,119.7) scale(1.0025) rotate(0)"><path d="M10 0H20L0 20V10L10 0Z" fill="#fff5e9"/><path d="M20 10V20H10L20 10Z" fill="#fff5e9"/></g><g transform="translate(865.03,139.75) scale(1.0025) rotate(0)"><path d="M10 0H20L0 20V10L10 0Z" fill="#87ab88"/><path d="M20 10V20H10L20 10Z" fill="#87ab88"/></g><g transform="translate(885.08,139.75) scale(1.0025) rotate(0)"><path d="M10 0H20L0 20V10L10 0Z" fill="#ffedd9"/><path d="M20 10V20H10L20 10Z" fill="#ffedd9"/></g><rect x="961.7781333333334" y="123.27813333333334" width="32.943733333333334" height="32.943733333333334" fill="#ffffff"/><g transform="translate(961.78,123.28) scale(0.8234999999999999) rotate(0)"><path d="M10 0H20L0 20V10L10 0Z" fill="#fff3e6"/><path d="M20 10V20H10L20 10Z" fill="#fff3e6"/></g><g transform="translate(978.25,123.28) scale(0.8234999999999999) rotate(0)"><path d="M10 0H20L0 20V10L10 0Z" fill="#276829"/><path d="M20 10V20H10L20 10Z" fill="#276829"/></g><g transform="translate(961.78,139.75) scale(0.8234999999999999) rotate(0)"><path d="M10 0H20L0 20V10L10 0Z" fill="#fff1e1"/><path d="M20 10V20H10L20 10Z" fill="#fff1e1"/></g><g transform="translate(978.25,139.75) scale(0.8234999999999999) rotate(0)"><path d="M10 0H20L0 20V10L10 0Z" fill="#ffddb6"/><path d="M20 10V20H10L20 10Z" fill="#ffddb6"/></g><rect x="1058.5224" y="126.85573333333335" width="25.788533333333334" height="25.788533333333334" fill="#ffffff"/><g transform="translate(1058.52,126.86) scale(0.6445000000000001) rotate(0)"><path d="M10 0H20L0 20V10L10 0Z" fill="#ffffff"/><path d="M20 10V20H10L20 10Z" fill="#ffffff"/></g><g transform="translate(1071.42,126.86) scale(0.6445000000000001) rotate(0)"><path d="M10 0H20L0 20V10L10 0Z" fill="#a9c3aa"/><path d="M20 10V20H10L20 10Z" fill="#a9c3aa"/></g><g transform="translate(1058.52,139.75) scale(0.6445000000000001) rotate(0)"><path d="M10 0H20L0 20V10L10 0Z" fill="#38743a"/><path d="M20 10V20H10L20 10Z" fill="#38743a"/></g><g transform="translate(1071.42,139.75) scale(0.6445000000000001) rotate(0)"><path d="M10 0H20L0 20V10L10 0Z" fill="#fffcf9"/><path d="M20 10V20H10L20 10Z" fill="#fffcf9"/></g><rect x="37.26666666666667" y="223.60000000000002" width="18.633333333333326" height="18.633333333333326" fill="#ffffff"/><g transform="translate(37.27,223.6) scale(0.466) rotate(0)"><path d="M10 0H20L0 20V10L10 0Z" fill="#4f8450"/><path d="M20 10V20H10L20 10Z" fill="#4f8450"/></g><g transform="translate(46.58,223.6) scale(0.466) rotate(0)"><path d="M10 0H20L0 20V10L10 0Z" fill="#ffd9ad"/><path d="M20 10V20H10L20 10Z" fill="#ffd9ad"/></g><g transform="translate(37.27,232.92) scale(0.466) rotate(0)"><path d="M10 0H20L0 20V10L10 0Z" fill="#ffd4a1"/><path d="M20 10V20H10L20 10Z" fill="#ffd4a1"/></g><g transform="translate(46.58,232.92) scale(0.466) rotate(0)"><path d="M10 0H20L0 20V10L10 0Z" fill="#93b394"/><path d="M20 10V20H10L20 10Z" fill="#93b394"/></g><rect x="123.27813333333334" y="216.44480000000001" width="32.94373333333333" height="32.94373333333333" fill="#ffffff"/><g transform="translate(123.28,216.44) scale(0.8234999999999999) rotate(0)"><path d="M10 0H20L0 20V10L10 0Z" fill="#4e8350"/><path d="M20 10V20H10L20 10Z" fill="#4e8350"/></g><g transform="translate(139.75,216.44) scale(0.8234999999999999) rotate(0)"><path d="M10 0H20L0 20V10L10 0Z" fill="#fff7ed"/><path d="M20 10V20H10L20 10Z" fill="#fff7ed"/></g><g transform="translate(123.28,232.92) scale(0.8234999999999999) rotate(0)"><path d="M10 0H20L0 20V10L10 0Z" fill="#ffdcb4"/><path d="M20 10V20H10L20 10Z" fill="#ffdcb4"/></g><g transform="translate(139.75,232.92) scale(0.8234999999999999) rotate(0)"><path d="M10 0H20L0 20V10L10 0Z" fill="#c7d8c7"/><path d="M20 10V20H10L20 10Z" fill="#c7d8c7"/></g><rect x="209.2896" y="209.2896" width="47.254133333333336" height="47.254133333333336" fill="#ffffff"/><g transform="translate(209.29,209.29) scale(1.1815) rotate(0)"><path d="M10 0H20L0 20V10L10 0Z" fill="#94b495"/><path d="M20 10V20H10L20 10Z" fill="#94b495"/></g><g transform="translate(232.92,209.29) scale(1.1815) rotate(0)"><path d="M10 0H20L0 20V10L10 0Z" fill="#1c601e"/><path d="M20 10V20H10L20 10Z" fill="#1c601e"/></g><g transform="translate(209.29,232.92) scale(1.1815) rotate(0)"><path d="M10 0H20L0 20V10L10 0Z" fill="#ffecd6"/><path d="M20 10V20H10L20 10Z" fill="#ffecd6"/></g><g transform="translate(232.92,232.92) scale(1.1815) rotate(0)"><path d="M10 0H20L0 20V10L10 0Z" fill="#ffefdd"/><path d="M20 10V20H10L20 10Z" fill="#ffefdd"/></g><rect x="295.30106666666666" y="202.1344" width="61.56453333333333" height="61.56453333333333" fill="#ffffff"/><g transform="translate(295.3,202.13) scale(1.5390000000000001) rotate(0)"><path d="M10 0H20L0 20V10L10 0Z" fill="#ffe9cf"/><path d="M20 10V20H10L20 10Z" fill="#ffe9cf"/></g><g transform="translate(326.08,202.13) scale(1.5390000000000001) rotate(0)"><path d="M10 0H20L0 20V10L10 0Z" fill="#fff8f1"/><path d="M20 10V20H10L20 10Z" fill="#fff8f1"/></g><g transform="translate(295.3,232.92) scale(1.5390000000000001) rotate(0)"><path d="M10 0H20L0 20V10L10 0Z" fill="#ffe4c6"/><path d="M20 10V20H10L20 10Z" fill="#ffe4c6"/></g><g transform="translate(326.08,232.92) scale(1.5390000000000001) rotate(0)"><path d="M10 0H20L0 20V10L10 0Z" fill="#fff0de"/><path d="M20 10V20H10L20 10Z" fill="#fff0de"/></g><rect x="381.31253333333336" y="194.97920000000002" width="75.87493333333333" height="75.87493333333333" fill="#ffffff"/><g transform="translate(381.31,194.98) scale(1.8969999999999998) rotate(0)"><path d="M10 0H20L0 20V10L10 0Z" fill="#ffe8ce"/><path d="M20 10V20H10L20 10Z" fill="#ffe8ce"/></g><g transform="translate(419.25,194.98) scale(1.8969999999999998) rotate(0)"><path d="M10 0H20L0 20V10L10 0Z" fill="#ffcd94"/><path d="M20 10V20H10L20 10Z" fill="#ffcd94"/></g><g transform="translate(381.31,232.92) scale(1.8969999999999998) rotate(0)"><path d="M10 0H20L0 20V10L10 0Z" fill="#e7eee7"/><path d="M20 10V20H10L20 10Z" fill="#e7eee7"/></g><g transform="translate(419.25,232.92) scale(1.8969999999999998) rotate(0)"><path d="M10 0H20L0 20V10L10 0Z" fill="#fff8f0"/><path d="M20 10V20H10L20 10Z" fill="#fff8f0"/></g><rect x="467.32400000000007" y="187.824" width="90.18533333333333" height="90.18533333333333" fill="#ffffff"/><g transform="translate(467.32,187.82) scale(2.2545) rotate(0)"><path d="M10 0H20L0 20V10L10 0Z" fill="#eef3ee"/><path d="M20 10V20H10L20 10Z" fill="#eef3ee"/></g><g transform="translate(512.42,187.82) scale(2.2545) rotate(0)"><path d="M10 0H20L0 20V10L10 0Z" fill="#e7eee7"/><path d="M20 10V20H10L20 10Z" fill="#e7eee7"/></g><g transform="translate(467.32,232.92) scale(2.2545) rotate(0)"><path d="M10 0H20L0 20V10L10 0Z" fill="#b8cdb9"/><path d="M20 10V20H10L20 10Z" fill="#b8cdb9"/></g><g transform="translate(512.42,232.92) scale(2.2545) rotate(0)"><path d="M10 0H20L0 20V10L10 0Z" fill="#a4c0a5"/><path d="M20 10V20H10L20 10Z" fill="#a4c0a5"/></g><rect x="560.4906666666667" y="187.824" width="90.18533333333333" height="90.18533333333333" fill="#ffffff"/><g transform="translate(560.49,187.82) scale(2.2545) rotate(0)"><path d="M10 0H20L0 20V10L10 0Z" fill="#8fb090"/><path d="M20 10V20H10L20 10Z" fill="#8fb090"/></g><g transform="translate(605.58,187.82) scale(2.2545) rotate(0)"><path d="M10 0H20L0 20V10L10 0Z" fill="#fffefe"/><path d="M20 10V20H10L20 10Z" fill="#fffefe"/></g><g transform="translate(560.49,232.92) scale(2.2545) rotate(0)"><path d="M10 0H20L0 20V10L10 0Z" fill="#619163"/><path d="M20 10V20H10L20 10Z" fill="#619163"/></g><g transform="translate(605.58,232.92) scale(2.2545) rotate(0)"><path d="M10 0H20L0 20V10L10 0Z" fill="#ffd9ad"/><path d="M20 10V20H10L20 10Z" fill="#ffd9ad"/></g><rect x="653.6573333333334" y="187.824" width="90.18533333333333" height="90.18533333333333" fill="#ffffff"/><g transform="translate(653.66,187.82) scale(2.2545) rotate(0)"><path d="M10 0H20L0 20V10L10 0Z" fill="#437b45"/><path d="M20 10V20H10L20 10Z" fill="#437b45"/></g><g transform="translate(698.75,187.82) scale(2.2545) rotate(0)"><path d="M10 0H20L0 20V10L10 0Z" fill="#bacfbb"/><path d="M20 10V20H10L20 10Z" fill="#bacfbb"/></g><g transform="translate(653.66,232.92) scale(2.2545) rotate(0)"><path d="M10 0H20L0 20V10L10 0Z" fill="#dfe8df"/><path d="M20 10V20H10L20 10Z" fill="#dfe8df"/></g><g transform="translate(698.75,232.92) scale(2.2545) rotate(0)"><path d="M10 0H20L0 20V10L10 0Z" fill="#a8c2a9"/><path d="M20 10V20H10L20 10Z" fill="#a8c2a9"/></g><rect x="753.9792" y="194.97920000000002" width="75.87493333333333" height="75.87493333333333" fill="#ffffff"/><g transform="translate(753.98,194.98) scale(1.8969999999999998) rotate(0)"><path d="M10 0H20L0 20V10L10 0Z" fill="#ffd29e"/><path d="M20 10V20H10L20 10Z" fill="#ffd29e"/></g><g transform="translate(791.92,194.98) scale(1.8969999999999998) rotate(0)"><path d="M10 0H20L0 20V10L10 0Z" fill="#749e76"/><path d="M20 10V20H10L20 10Z" fill="#749e76"/></g><g transform="translate(753.98,232.92) scale(1.8969999999999998) rotate(0)"><path d="M10 0H20L0 20V10L10 0Z" fill="#7ba27c"/><path d="M20 10V20H10L20 10Z" fill="#7ba27c"/></g><g transform="translate(791.92,232.92) scale(1.8969999999999998) rotate(0)"><path d="M10 0H20L0 20V10L10 0Z" fill="#5e8e5f"/><path d="M20 10V20H10L20 10Z" fill="#5e8e5f"/></g><rect x="854.3010666666667" y="202.1344" width="61.56453333333333" height="61.56453333333333" fill="#ffffff"/><g transform="translate(854.3,202.13) scale(1.5390000000000001) rotate(0)"><path d="M10 0H20L0 20V10L10 0Z" fill="#1e6220"/><path d="M20 10V20H10L20 10Z" fill="#1e6220"/></g><g transform="translate(885.08,202.13) scale(1.5390000000000001) rotate(0)"><path d="M10 0H20L0 20V10L10 0Z" fill="#87ab88"/><path d="M20 10V20H10L20 10Z" fill="#87ab88"/></g><g transform="translate(854.3,232.92) scale(1.5390000000000001) rotate(0)"><path d="M10 0H20L0 20V10L10 0Z" fill="#fff8ef"/><path d="M20 10V20H10L20 10Z" fill="#fff8ef"/></g><g transform="translate(885.08,232.92) scale(1.5390000000000001) rotate(0)"><path d="M10 0H20L0 20V10L10 0Z" fill="#779f78"/><path d="M20 10V20H10L20 10Z" fill="#779f78"/></g><rect x="954.6229333333334" y="209.2896" width="47.254133333333336" height="47.254133333333336" fill="#ffffff"/><g transform="translate(954.62,209.29) scale(1.1815) rotate(0)"><path d="M10 0H20L0 20V10L10 0Z" fill="#4f8450"/><path d="M20 10V20H10L20 10Z" fill="#4f8450"/></g><g transform="translate(978.25,209.29) scale(1.1815) rotate(0)"><path d="M10 0H20L0 20V10L10 0Z" fill="#fff2e2"/><path d="M20 10V20H10L20 10Z" fill="#fff2e2"/></g><g transform="translate(954.62,232.92) scale(1.1815) rotate(0)"><path d="M10 0H20L0 20V10L10 0Z" fill="#ffdab0"/><path d="M20 10V20H10L20 10Z" fill="#ffdab0"/></g><g transform="translate(978.25,232.92) scale(1.1815) rotate(0)"><path d="M10 0H20L0 20V10L10 0Z" fill="#e3ebe3"/><path d="M20 10V20H10L20 10Z" fill="#e3ebe3"/></g><rect x="1054.9448000000002" y="216.44480000000001" width="32.94373333333333" height="32.94373333333333" fill="#ffffff"/><g transform="translate(1054.94,216.44) scale(0.8234999999999999) rotate(0)"><path d="M10 0H20L0 20V10L10 0Z" fill="#ffdfb9"/><path d="M20 10V20H10L20 10Z" fill="#ffdfb9"/></g><g transform="translate(1071.42,216.44) scale(0.8234999999999999) rotate(0)"><path d="M10 0H20L0 20V10L10 0Z" fill="#fff7ed"/><path d="M20 10V20H10L20 10Z" fill="#fff7ed"/></g><g transform="translate(1054.94,232.92) scale(0.8234999999999999) rotate(0)"><path d="M10 0H20L0 20V10L10 0Z" fill="#679468"/><path d="M20 10V20H10L20 10Z" fill="#679468"/></g><g transform="translate(1071.42,232.92) scale(0.8234999999999999) rotate(0)"><path d="M10 0H20L0 20V10L10 0Z" fill="#216323"/><path d="M20 10V20H10L20 10Z" fill="#216323"/></g><rect x="37.26666666666667" y="316.76666666666665" width="18.633333333333326" height="18.633333333333326" fill="#ffffff"/><g transform="translate(37.27,316.77) scale(0.466) rotate(0)"><path d="M10 0H20L0 20V10L10 0Z" fill="#ffcf97"/><path d="M20 10V20H10L20 10Z" fill="#ffcf97"/></g><g transform="translate(46.58,316.77) scale(0.466) rotate(0)"><path d="M10 0H20L0 20V10L10 0Z" fill="#fff2e3"/><path d="M20 10V20H10L20 10Z" fill="#fff2e3"/></g><g transform="translate(37.27,326.08) scale(0.466) rotate(0)"><path d="M10 0H20L0 20V10L10 0Z" fill="#739d75"/><path d="M20 10V20H10L20 10Z" fill="#739d75"/></g><g transform="translate(46.58,326.08) scale(0.466) rotate(0)"><path d="M10 0H20L0 20V10L10 0Z" fill="#fff8f1"/><path d="M20 10V20H10L20 10Z" fill="#fff8f1"/></g><rect x="123.27813333333334" y="309.6114666666667" width="32.94373333333333" height="32.94373333333333" fill="#ffffff"/><g transform="translate(123.28,309.61) scale(0.8234999999999999) rotate(0)"><path d="M10 0H20L0 20V10L10 0Z" fill="#9ab89b"/><path d="M20 10V20H10L20 10Z" fill="#9ab89b"/></g><g transform="translate(139.75,309.61) scale(0.8234999999999999) rotate(0)"><path d="M10 0H20L0 20V10L10 0Z" fill="#bcd0bc"/><path d="M20 10V20H10L20 10Z" fill="#bcd0bc"/></g><g transform="translate(123.28,326.08) scale(0.8234999999999999) rotate(0)"><path d="M10 0H20L0 20V10L10 0Z" fill="#fffbf5"/><path d="M20 10V20H10L20 10Z" fill="#fffbf5"/></g><g transform="translate(139.75,326.08) scale(0.8234999999999999) rotate(0)"><path d="M10 0H20L0 20V10L10 0Z" fill="#619062"/><path d="M20 10V20H10L20 10Z" fill="#619062"/></g><rect x="209.2896" y="302.4562666666667" width="47.254133333333336" height="47.254133333333336" fill="#ffffff"/><g transform="translate(209.29,302.46) scale(1.1815) rotate(0)"><path d="M10 0H20L0 20V10L10 0Z" fill="#b6ccb7"/><path d="M20 10V20H10L20 10Z" fill="#b6ccb7"/></g><g transform="translate(232.92,302.46) scale(1.1815) rotate(0)"><path d="M10 0H20L0 20V10L10 0Z" fill="#ffe7cc"/><path d="M20 10V20H10L20 10Z" fill="#ffe7cc"/></g><g transform="translate(209.29,326.08) scale(1.1815) rotate(0)"><path d="M10 0H20L0 20V10L10 0Z" fill="#fff7ed"/><path d="M20 10V20H10L20 10Z" fill="#fff7ed"/></g><g transform="translate(232.92,326.08) scale(1.1815) rotate(0)"><path d="M10 0H20L0 20V10L10 0Z" fill="#236525"/><path d="M20 10V20H10L20 10Z" fill="#236525"/></g><rect x="295.30106666666666" y="295.30106666666666" width="61.56453333333333" height="61.56453333333333" fill="#ffffff"/><g transform="translate(295.3,295.3) scale(1.5390000000000001) rotate(0)"><path d="M10 0H20L0 20V10L10 0Z" fill="#ffecd6"/><path d="M20 10V20H10L20 10Z" fill="#ffecd6"/></g><g transform="translate(326.08,295.3) scale(1.5390000000000001) rotate(0)"><path d="M10 0H20L0 20V10L10 0Z" fill="#ffecd7"/><path d="M20 10V20H10L20 10Z" fill="#ffecd7"/></g><g transform="translate(295.3,326.08) scale(1.5390000000000001) rotate(0)"><path d="M10 0H20L0 20V10L10 0Z" fill="#fffffe"/><path d="M20 10V20H10L20 10Z" fill="#fffffe"/></g><g transform="translate(326.08,326.08) scale(1.5390000000000001) rotate(0)"><path d="M10 0H20L0 20V10L10 0Z" fill="#d7e3d7"/><path d="M20 10V20H10L20 10Z" fill="#d7e3d7"/></g><rect x="381.31253333333336" y="288.1458666666667" width="75.87493333333333" height="75.87493333333333" fill="#ffffff"/><g transform="translate(381.31,288.15) scale(1.8969999999999998) rotate(0)"><path d="M10 0H20L0 20V10L10 0Z" fill="#6b976c"/><path d="M20 10V20H10L20 10Z" fill="#6b976c"/></g><g transform="translate(419.25,288.15) scale(1.8969999999999998) rotate(0)"><path d="M10 0H20L0 20V10L10 0Z" fill="#ffead1"/><path d="M20 10V20H10L20 10Z" fill="#ffead1"/></g><g transform="translate(381.31,326.08) scale(1.8969999999999998) rotate(0)"><path d="M10 0H20L0 20V10L10 0Z" fill="#fffaf4"/><path d="M20 10V20H10L20 10Z" fill="#fffaf4"/></g><g transform="translate(419.25,326.08) scale(1.8969999999999998) rotate(0)"><path d="M10 0H20L0 20V10L10 0Z" fill="#568857"/><path d="M20 10V20H10L20 10Z" fill="#568857"/></g><rect x="467.32400000000007" y="280.9906666666667" width="90.18533333333333" height="90.18533333333333" fill="#ffffff"/><g transform="translate(467.32,280.99) scale(2.2545) rotate(0)"><path d="M10 0H20L0 20V10L10 0Z" fill="#cadacb"/><path d="M20 10V20H10L20 10Z" fill="#cadacb"/></g><g transform="translate(512.42,280.99) scale(2.2545) rotate(0)"><path d="M10 0H20L0 20V10L10 0Z" fill="#165c18"/><path d="M20 10V20H10L20 10Z" fill="#165c18"/></g><g transform="translate(467.32,326.08) scale(2.2545) rotate(0)"><path d="M10 0H20L0 20V10L10 0Z" fill="#acc5ad"/><path d="M20 10V20H10L20 10Z" fill="#acc5ad"/></g><g transform="translate(512.42,326.08) scale(2.2545) rotate(0)"><path d="M10 0H20L0 20V10L10 0Z" fill="#fffcf8"/><path d="M20 10V20H10L20 10Z" fill="#fffcf8"/></g><rect x="560.4906666666667" y="280.9906666666667" width="90.18533333333333" height="90.18533333333333" fill="#ffffff"/><g transform="translate(560.49,280.99) scale(2.2545) rotate(0)"><path d="M10 0H20L0 20V10L10 0Z" fill="#ffce96"/><path d="M20 10V20H10L20 10Z" fill="#ffce96"/></g><g transform="translate(605.58,280.99) scale(2.2545) rotate(0)"><path d="M10 0H20L0 20V10L10 0Z" fill="#ffd9ac"/><path d="M20 10V20H10L20 10Z" fill="#ffd9ac"/></g><g transform="translate(560.49,326.08) scale(2.2545) rotate(0)"><path d="M10 0H20L0 20V10L10 0Z" fill="#b1c8b1"/><path d="M20 10V20H10L20 10Z" fill="#b1c8b1"/></g><g transform="translate(605.58,326.08) scale(2.2545) rotate(0)"><path d="M10 0H20L0 20V10L10 0Z" fill="#fff7ee"/><path d="M20 10V20H10L20 10Z" fill="#fff7ee"/></g><rect x="653.6573333333334" y="280.9906666666667" width="90.18533333333333" height="90.18533333333333" fill="#ffffff"/><g transform="translate(653.66,280.99) scale(2.2545) rotate(0)"><path d="M10 0H20L0 20V10L10 0Z" fill="#ffead3"/><path d="M20 10V20H10L20 10Z" fill="#ffead3"/></g><g transform="translate(698.75,280.99) scale(2.2545) rotate(0)"><path d="M10 0H20L0 20V10L10 0Z" fill="#ffecd6"/><path d="M20 10V20H10L20 10Z" fill="#ffecd6"/></g><g transform="translate(653.66,326.08) scale(2.2545) rotate(0)"><path d="M10 0H20L0 20V10L10 0Z" fill="#226424"/><path d="M20 10V20H10L20 10Z" fill="#226424"/></g><g transform="translate(698.75,326.08) scale(2.2545) rotate(0)"><path d="M10 0H20L0 20V10L10 0Z" fill="#f5f8f5"/><path d="M20 10V20H10L20 10Z" fill="#f5f8f5"/></g><rect x="753.9792" y="288.1458666666667" width="75.87493333333333" height="75.87493333333333" fill="#ffffff"/><g transform="translate(753.98,288.15) scale(1.8969999999999998) rotate(0)"><path d="M10 0H20L0 20V10L10 0Z" fill="#b0c8b1"/><path d="M20 10V20H10L20 10Z" fill="#b0c8b1"/></g><g transform="translate(791.92,288.15) scale(1.8969999999999998) rotate(0)"><path d="M10 0H20L0 20V10L10 0Z" fill="#ffe7cb"/><path d="M20 10V20H10L20 10Z" fill="#ffe7cb"/></g><g transform="translate(753.98,326.08) scale(1.8969999999999998) rotate(0)"><path d="M10 0H20L0 20V10L10 0Z" fill="#ffdcb4"/><path d="M20 10V20H10L20 10Z" fill="#ffdcb4"/></g><g transform="translate(791.92,326.08) scale(1.8969999999999998) rotate(0)"><path d="M10 0H20L0 20V10L10 0Z" fill="#c8d9c9"/><path d="M20 10V20H10L20 10Z" fill="#c8d9c9"/></g><rect x="854.3010666666667" y="295.30106666666666" width="61.56453333333333" height="61.56453333333333" fill="#ffffff"/><g transform="translate(854.3,295.3) scale(1.5390000000000001) rotate(0)"><path d="M10 0H20L0 20V10L10 0Z" fill="#ffd5a4"/><path d="M20 10V20H10L20 10Z" fill="#ffd5a4"/></g><g transform="translate(885.08,295.3) scale(1.5390000000000001) rotate(0)"><path d="M10 0H20L0 20V10L10 0Z" fill="#5a8b5b"/><path d="M20 10V20H10L20 10Z" fill="#5a8b5b"/></g><g transform="translate(854.3,326.08) scale(1.5390000000000001) rotate(0)"><path d="M10 0H20L0 20V10L10 0Z" fill="#ffe0bd"/><path d="M20 10V20H10L20 10Z" fill="#ffe0bd"/></g><g transform="translate(885.08,326.08) scale(1.5390000000000001) rotate(0)"><path d="M10 0H20L0 20V10L10 0Z" fill="#ffe7cc"/><path d="M20 10V20H10L20 10Z" fill="#ffe7cc"/></g><rect x="954.6229333333334" y="302.4562666666667" width="47.254133333333336" height="47.254133333333336" fill="#ffffff"/><g transform="translate(954.62,302.46) scale(1.1815) rotate(0)"><path d="M10 0H20L0 20V10L10 0Z" fill="#5f8f61"/><path d="M20 10V20H10L20 10Z" fill="#5f8f61"/></g><g transform="translate(978.25,302.46) scale(1.1815) rotate(0)"><path d="M10 0H20L0 20V10L10 0Z" fill="#e5ede6"/><path d="M20 10V20H10L20 10Z" fill="#e5ede6"/></g><g transform="translate(954.62,326.08) scale(1.1815) rotate(0)"><path d="M10 0H20L0 20V10L10 0Z" fill="#3c763d"/><path d="M20 10V20H10L20 10Z" fill="#3c763d"/></g><g transform="translate(978.25,326.08) scale(1.1815) rotate(0)"><path d="M10 0H20L0 20V10L10 0Z" fill="#538755"/><path d="M20 10V20H10L20 10Z" fill="#538755"/></g><rect x="1054.9448000000002" y="309.6114666666667" width="32.94373333333333" height="32.94373333333333" fill="#ffffff"/><g transform="translate(1054.94,309.61) scale(0.8234999999999999) rotate(0)"><path d="M10 0H20L0 20V10L10 0Z" fill="#538654"/><path d="M20 10V20H10L20 10Z" fill="#538654"/></g><g transform="translate(1071.42,309.61) scale(0.8234999999999999) rotate(0)"><path d="M10 0H20L0 20V10L10 0Z" fill="#387339"/><path d="M20 10V20H10L20 10Z" fill="#387339"/></g><g transform="translate(1054.94,326.08) scale(0.8234999999999999) rotate(0)"><path d="M10 0H20L0 20V10L10 0Z" fill="#fffdfb"/><path d="M20 10V20H10L20 10Z" fill="#fffdfb"/></g><g transform="translate(1071.42,326.08) scale(0.8234999999999999) rotate(0)"><path d="M10 0H20L0 20V10L10 0Z" fill="#ffe4c4"/><path d="M20 10V20H10L20 10Z" fill="#ffe4c4"/></g><rect x="37.26666666666667" y="409.93333333333334" width="18.633333333333326" height="18.633333333333326" fill="#ffffff"/><g transform="translate(37.27,409.93) scale(0.466) rotate(0)"><path d="M10 0H20L0 20V10L10 0Z" fill="#fff6eb"/><path d="M20 10V20H10L20 10Z" fill="#fff6eb"/></g><g transform="translate(46.58,409.93) scale(0.466) rotate(0)"><path d="M10 0H20L0 20V10L10 0Z" fill="#ffe9cf"/><path d="M20 10V20H10L20 10Z" fill="#ffe9cf"/></g><g transform="translate(37.27,419.25) scale(0.466) rotate(0)"><path d="M10 0H20L0 20V10L10 0Z" fill="#ffdfb9"/><path d="M20 10V20H10L20 10Z" fill="#ffdfb9"/></g><g transform="translate(46.58,419.25) scale(0.466) rotate(0)"><path d="M10 0H20L0 20V10L10 0Z" fill="#ffcb90"/><path d="M20 10V20H10L20 10Z" fill="#ffcb90"/></g><rect x="126.85573333333335" y="406.3557333333334" width="25.788533333333334" height="25.788533333333334" fill="#ffffff"/><g transform="translate(126.86,406.36) scale(0.6445000000000001) rotate(0)"><path d="M10 0H20L0 20V10L10 0Z" fill="#ffce95"/><path d="M20 10V20H10L20 10Z" fill="#ffce95"/></g><g transform="translate(139.75,406.36) scale(0.6445000000000001) rotate(0)"><path d="M10 0H20L0 20V10L10 0Z" fill="#69966a"/><path d="M20 10V20H10L20 10Z" fill="#69966a"/></g><g transform="translate(126.86,419.25) scale(0.6445000000000001) rotate(0)"><path d="M10 0H20L0 20V10L10 0Z" fill="#2f6d31"/><path d="M20 10V20H10L20 10Z" fill="#2f6d31"/></g><g transform="translate(139.75,419.25) scale(0.6445000000000001) rotate(0)"><path d="M10 0H20L0 20V10L10 0Z" fill="#92b393"/><path d="M20 10V20H10L20 10Z" fill="#92b393"/></g><rect x="216.44480000000001" y="402.77813333333336" width="32.943733333333334" height="32.943733333333334" fill="#ffffff"/><g transform="translate(216.44,402.78) scale(0.8234999999999999) rotate(0)"><path d="M10 0H20L0 20V10L10 0Z" fill="#ffe8cd"/><path d="M20 10V20H10L20 10Z" fill="#ffe8cd"/></g><g transform="translate(232.92,402.78) scale(0.8234999999999999) rotate(0)"><path d="M10 0H20L0 20V10L10 0Z" fill="#b4cbb5"/><path d="M20 10V20H10L20 10Z" fill="#b4cbb5"/></g><g transform="translate(216.44,419.25) scale(0.8234999999999999) rotate(0)"><path d="M10 0H20L0 20V10L10 0Z" fill="#ffecd6"/><path d="M20 10V20H10L20 10Z" fill="#ffecd6"/></g><g transform="translate(232.92,419.25) scale(0.8234999999999999) rotate(0)"><path d="M10 0H20L0 20V10L10 0Z" fill="#ffd7aa"/><path d="M20 10V20H10L20 10Z" fill="#ffd7aa"/></g><rect x="306.03386666666665" y="399.20053333333334" width="40.098933333333335" height="40.098933333333335" fill="#ffffff"/><g transform="translate(306.03,399.2) scale(1.0025) rotate(0)"><path d="M10 0H20L0 20V10L10 0Z" fill="#7ca37d"/><path d="M20 10V20H10L20 10Z" fill="#7ca37d"/></g><g transform="translate(326.08,399.2) scale(1.0025) rotate(0)"><path d="M10 0H20L0 20V10L10 0Z" fill="#ffe4c5"/><path d="M20 10V20H10L20 10Z" fill="#ffe4c5"/></g><g transform="translate(306.03,419.25) scale(1.0025) rotate(0)"><path d="M10 0H20L0 20V10L10 0Z" fill="#86aa87"/><path d="M20 10V20H10L20 10Z" fill="#86aa87"/></g><g transform="translate(326.08,419.25) scale(1.0025) rotate(0)"><path d="M10 0H20L0 20V10L10 0Z" fill="#ffefdc"/><path d="M20 10V20H10L20 10Z" fill="#ffefdc"/></g><rect x="395.6229333333334" y="395.6229333333334" width="47.254133333333336" height="47.254133333333336" fill="#ffffff"/><g transform="translate(395.62,395.62) scale(1.1815) rotate(0)"><path d="M10 0H20L0 20V10L10 0Z" fill="#ffe0bc"/><path d="M20 10V20H10L20 10Z" fill="#ffe0bc"/></g><g transform="translate(419.25,395.62) scale(1.1815) rotate(0)"><path d="M10 0H20L0 20V10L10 0Z" fill="#ffead2"/><path d="M20 10V20H10L20 10Z" fill="#ffead2"/></g><g transform="translate(395.62,419.25) scale(1.1815) rotate(0)"><path d="M10 0H20L0 20V10L10 0Z" fill="#fff9f1"/><path d="M20 10V20H10L20 10Z" fill="#fff9f1"/></g><g transform="translate(419.25,419.25) scale(1.1815) rotate(0)"><path d="M10 0H20L0 20V10L10 0Z" fill="#cadacb"/><path d="M20 10V20H10L20 10Z" fill="#cadacb"/></g><rect x="485.21200000000005" y="392.04533333333336" width="54.40933333333333" height="54.40933333333333" fill="#ffffff"/><g transform="translate(485.21,392.05) scale(1.3599999999999999) rotate(0)"><path d="M10 0H20L0 20V10L10 0Z" fill="#477e49"/><path d="M20 10V20H10L20 10Z" fill="#477e49"/></g><g transform="translate(512.42,392.05) scale(1.3599999999999999) rotate(0)"><path d="M10 0H20L0 20V10L10 0Z" fill="#ffd7aa"/><path d="M20 10V20H10L20 10Z" fill="#ffd7aa"/></g><g transform="translate(485.21,419.25) scale(1.3599999999999999) rotate(0)"><path d="M10 0H20L0 20V10L10 0Z" fill="#ffd4a3"/><path d="M20 10V20H10L20 10Z" fill="#ffd4a3"/></g><g transform="translate(512.42,419.25) scale(1.3599999999999999) rotate(0)"><path d="M10 0H20L0 20V10L10 0Z" fill="#ffecd6"/><path d="M20 10V20H10L20 10Z" fill="#ffecd6"/></g><rect x="578.3786666666666" y="392.04533333333336" width="54.40933333333333" height="54.40933333333333" fill="#ffffff"/><g transform="translate(578.38,392.05) scale(1.3599999999999999) rotate(0)"><path d="M10 0H20L0 20V10L10 0Z" fill="#e9efe9"/><path d="M20 10V20H10L20 10Z" fill="#e9efe9"/></g><g transform="translate(605.58,392.05) scale(1.3599999999999999) rotate(0)"><path d="M10 0H20L0 20V10L10 0Z" fill="#97b697"/><path d="M20 10V20H10L20 10Z" fill="#97b697"/></g><g transform="translate(578.38,419.25) scale(1.3599999999999999) rotate(0)"><path d="M10 0H20L0 20V10L10 0Z" fill="#ffd29e"/><path d="M20 10V20H10L20 10Z" fill="#ffd29e"/></g><g transform="translate(605.58,419.25) scale(1.3599999999999999) rotate(0)"><path d="M10 0H20L0 20V10L10 0Z" fill="#ffd7a8"/><path d="M20 10V20H10L20 10Z" fill="#ffd7a8"/></g><rect x="671.5453333333334" y="392.04533333333336" width="54.40933333333333" height="54.40933333333333" fill="#ffffff"/><g transform="translate(671.55,392.05) scale(1.3599999999999999) rotate(0)"><path d="M10 0H20L0 20V10L10 0Z" fill="#ffefdc"/><path d="M20 10V20H10L20 10Z" fill="#ffefdc"/></g><g transform="translate(698.75,392.05) scale(1.3599999999999999) rotate(0)"><path d="M10 0H20L0 20V10L10 0Z" fill="#b4cbb5"/><path d="M20 10V20H10L20 10Z" fill="#b4cbb5"/></g><g transform="translate(671.55,419.25) scale(1.3599999999999999) rotate(0)"><path d="M10 0H20L0 20V10L10 0Z" fill="#cadacb"/><path d="M20 10V20H10L20 10Z" fill="#cadacb"/></g><g transform="translate(698.75,419.25) scale(1.3599999999999999) rotate(0)"><path d="M10 0H20L0 20V10L10 0Z" fill="#518553"/><path d="M20 10V20H10L20 10Z" fill="#518553"/></g><rect x="768.2896000000001" y="395.6229333333334" width="47.254133333333336" height="47.254133333333336" fill="#ffffff"/><g transform="translate(768.29,395.62) scale(1.1815) rotate(0)"><path d="M10 0H20L0 20V10L10 0Z" fill="#d8e4d9"/><path d="M20 10V20H10L20 10Z" fill="#d8e4d9"/></g><g transform="translate(791.92,395.62) scale(1.1815) rotate(0)"><path d="M10 0H20L0 20V10L10 0Z" fill="#f9fbf9"/><path d="M20 10V20H10L20 10Z" fill="#f9fbf9"/></g><g transform="translate(768.29,419.25) scale(1.1815) rotate(0)"><path d="M10 0H20L0 20V10L10 0Z" fill="#5e8e5f"/><path d="M20 10V20H10L20 10Z" fill="#5e8e5f"/></g><g transform="translate(791.92,419.25) scale(1.1815) rotate(0)"><path d="M10 0H20L0 20V10L10 0Z" fill="#fff2e3"/><path d="M20 10V20H10L20 10Z" fill="#fff2e3"/></g><rect x="865.0338666666667" y="399.20053333333334" width="40.098933333333335" height="40.098933333333335" fill="#ffffff"/><g transform="translate(865.03,399.2) scale(1.0025) rotate(0)"><path d="M10 0H20L0 20V10L10 0Z" fill="#fff8f1"/><path d="M20 10V20H10L20 10Z" fill="#fff8f1"/></g><g transform="translate(885.08,399.2) scale(1.0025) rotate(0)"><path d="M10 0H20L0 20V10L10 0Z" fill="#d8e4d8"/><path d="M20 10V20H10L20 10Z" fill="#d8e4d8"/></g><g transform="translate(865.03,419.25) scale(1.0025) rotate(0)"><path d="M10 0H20L0 20V10L10 0Z" fill="#ffdeb7"/><path d="M20 10V20H10L20 10Z" fill="#ffdeb7"/></g><g transform="translate(885.08,419.25) scale(1.0025) rotate(0)"><path d="M10 0H20L0 20V10L10 0Z" fill="#6e9a6f"/><path d="M20 10V20H10L20 10Z" fill="#6e9a6f"/></g><rect x="961.7781333333334" y="402.77813333333336" width="32.943733333333334" height="32.943733333333334" fill="#ffffff"/><g transform="translate(961.78,402.78) scale(0.8234999999999999) rotate(0)"><path d="M10 0H20L0 20V10L10 0Z" fill="#8fb090"/><path d="M20 10V20H10L20 10Z" fill="#8fb090"/></g><g transform="translate(978.25,402.78) scale(0.8234999999999999) rotate(0)"><path d="M10 0H20L0 20V10L10 0Z" fill="#cddccd"/><path d="M20 10V20H10L20 10Z" fill="#cddccd"/></g><g transform="translate(961.78,419.25) scale(0.8234999999999999) rotate(0)"><path d="M10 0H20L0 20V10L10 0Z" fill="#fff7ee"/><path d="M20 10V20H10L20 10Z" fill="#fff7ee"/></g><g transform="translate(978.25,419.25) scale(0.8234999999999999) rotate(0)"><path d="M10 0H20L0 20V10L10 0Z" fill="#dde7de"/><path d="M20 10V20H10L20 10Z" fill="#dde7de"/></g><rect x="1058.5224" y="406.3557333333334" width="25.788533333333334" height="25.788533333333334" fill="#ffffff"/><g transform="translate(1058.52,406.36) scale(0.6445000000000001) rotate(0)"><path d="M10 0H20L0 20V10L10 0Z" fill="#d3e0d3"/><path d="M20 10V20H10L20 10Z" fill="#d3e0d3"/></g><g transform="translate(1071.42,406.36) scale(0.6445000000000001) rotate(0)"><path d="M10 0H20L0 20V10L10 0Z" fill="#fff1e2"/><path d="M20 10V20H10L20 10Z" fill="#fff1e2"/></g><g transform="translate(1058.52,419.25) scale(0.6445000000000001) rotate(0)"><path d="M10 0H20L0 20V10L10 0Z" fill="#9cba9d"/><path d="M20 10V20H10L20 10Z" fill="#9cba9d"/></g><g transform="translate(1071.42,419.25) scale(0.6445000000000001) rotate(0)"><path d="M10 0H20L0 20V10L10 0Z" fill="#fff3e6"/><path d="M20 10V20H10L20 10Z" fill="#fff3e6"/></g></g></svg>