<?xml version="1.0" standalone="no"?><svg xmlns:xlink="http://www.w3.org/1999/xlink" xmlns="http://www.w3.org/2000/svg" viewBox="0 0 1000 666.6666666666666" preserveAspectRatio="xMaxYMax slice"><g transform="scale(1.4232849416453173)"><rect x="0" y="0" width="761.15" height="468.4" fill="#ffffff"/><g transform="translate(0,0) scale(2.9274999999999998) rotate(0)"><path d="M10 0L20 10L10 20L0 10L10 0Z" fill="#d3fbd3"/></g><g transform="translate(58.55,0) scale(2.9274999999999998) rotate(0)"><path d="M10 0L20 10L10 20L0 10L10 0Z" fill="#d9fbd9"/></g><g transform="translate(117.1,0) scale(2.9274999999999998) rotate(0)"><path d="M10 0L20 10L10 20L0 10L10 0Z" fill="#e8fde8"/></g><g transform="translate(175.65,0) scale(2.9274999999999998) rotate(0)"><path d="M10 0L20 10L10 20L0 10L10 0Z" fill="#2f7538"/></g><g transform="translate(234.2,0) scale(2.9274999999999998) rotate(0)"><path d="M10 0L20 10L10 20L0 10L10 0Z" fill="#f5fef5"/></g><g transform="translate(292.75,0) scale(2.9274999999999998) rotate(0)"><path d="M10 0L20 10L10 20L0 10L10 0Z" fill="#fbfffb"/></g><g transform="translate(351.3,0) scale(2.9274999999999998) rotate(0)"><path d="M10 0L20 10L10 20L0 10L10 0Z" fill="#d0e0d2"/></g><g transform="translate(409.85,0) scale(2.9274999999999998) rotate(0)"><path d="M10 0L20 10L10 20L0 10L10 0Z" fill="#ccddcf"/></g><g transform="translate(468.4,0) scale(2.9274999999999998) rotate(0)"><path d="M10 0L20 10L10 20L0 10L10 0Z" fill="#4b8753"/></g><g transform="translate(526.95,0) scale(2.9274999999999998) rotate(0)"><path d="M10 0L20 10L10 20L0 10L10 0Z" fill="#cffacf"/></g><g transform="translate(585.5,0) scale(2.9274999999999998) rotate(0)"><path d="M10 0L20 10L10 20L0 10L10 0Z" fill="#8cb291"/></g><g transform="translate(644.05,0) scale(2.9274999999999998) rotate(0)"><path d="M10 0L20 10L10 20L0 10L10 0Z" fill="#d2fbd2"/></g><g transform="translate(702.6,0) scale(2.9274999999999998) rotate(0)"><path d="M10 0L20 10L10 20L0 10L10 0Z" fill="#fdfffd"/></g><g transform="translate(0,58.55) scale(2.9274999999999998) rotate(0)"><path d="M10 0L20 10L10 20L0 10L10 0Z" fill="#aec9b2"/></g><g transform="translate(58.55,58.55) scale(2.9274999999999998) rotate(0)"><path d="M10 0L20 10L10 20L0 10L10 0Z" fill="#e2fce2"/></g><g transform="translate(117.1,58.55) scale(2.9274999999999998) rotate(0)"><path d="M10 0L20 10L10 20L0 10L10 0Z" fill="#ebf2ec"/></g><g transform="translate(175.65,58.55) scale(2.9274999999999998) rotate(0)"><path d="M10 0L20 10L10 20L0 10L10 0Z" fill="#cffacf"/></g><g transform="translate(234.2,58.55) scale(2.9274999999999998) rotate(0)"><path d="M10 0L20 10L10 20L0 10L10 0Z" fill="#e2fce2"/></g><g transform="translate(292.75,58.55) scale(2.9274999999999998) rotate(0)"><path d="M10 0L20 10L10 20L0 10L10 0Z" fill="#74a37a"/></g><g transform="translate(351.3,58.55) scale(2.9274999999999998) rotate(0)"><path d="M10 0L20 10L10 20L0 10L10 0Z" fill="#e4fce4"/></g><g transform="translate(409.85,58.55) scale(2.9274999999999998) rotate(0)"><path d="M10 0L20 10L10 20L0 10L10 0Z" fill="#d0fad0"/></g><g transform="translate(468.4,58.55) scale(2.9274999999999998) rotate(0)"><path d="M10 0L20 10L10 20L0 10L10 0Z" fill="#bdd3c0"/></g><g transform="translate(526.95,58.55) scale(2.9274999999999998) rotate(0)"><path d="M10 0L20 10L10 20L0 10L10 0Z" fill="#d4fbd4"/></g><g transform="translate(585.5,58.55) scale(2.9274999999999998) rotate(0)"><path d="M10 0L20 10L10 20L0 10L10 0Z" fill="#d8fbd8"/></g><g transform="translate(644.05,58.55) scale(2.9274999999999998) rotate(0)"><path d="M10 0L20 10L10 20L0 10L10 0Z" fill="#48854f"/></g><g transform="translate(702.6,58.55) scale(2.9274999999999998) rotate(0)"><path d="M10 0L20 10L10 20L0 10L10 0Z" fill="#d6fbd6"/></g><g transform="translate(0,117.1) scale(2.9274999999999998) rotate(0)"><path d="M10 0L20 10L10 20L0 10L10 0Z" fill="#1c6826"/></g><g transform="translate(58.55,117.1) scale(2.9274999999999998) rotate(0)"><path d="M10 0L20 10L10 20L0 10L10 0Z" fill="#fcfffc"/></g><g transform="translate(117.1,117.1) scale(2.9274999999999998) rotate(0)"><path d="M10 0L20 10L10 20L0 10L10 0Z" fill="#2d7336"/></g><g transform="translate(175.65,117.1) scale(2.9274999999999998) rotate(0)"><path d="M10 0L20 10L10 20L0 10L10 0Z" fill="#f7fef7"/></g><g transform="translate(234.2,117.1) scale(2.9274999999999998) rotate(0)"><path d="M10 0L20 10L10 20L0 10L10 0Z" fill="#aac6ad"/></g><g transform="translate(292.75,117.1) scale(2.9274999999999998) rotate(0)"><path d="M10 0L20 10L10 20L0 10L10 0Z" fill="#2a7133"/></g><g transform="translate(351.3,117.1) scale(2.9274999999999998) rotate(0)"><path d="M10 0L20 10L10 20L0 10L10 0Z" fill="#6d9e73"/></g><g transform="translate(409.85,117.1) scale(2.9274999999999998) rotate(0)"><path d="M10 0L20 10L10 20L0 10L10 0Z" fill="#c3d7c5"/></g><g transform="translate(468.4,117.1) scale(2.9274999999999998) rotate(0)"><path d="M10 0L20 10L10 20L0 10L10 0Z" fill="#e9fde9"/></g><g transform="translate(526.95,117.1) scale(2.9274999999999998) rotate(0)"><path d="M10 0L20 10L10 20L0 10L10 0Z" fill="#5d9364"/></g><g transform="translate(585.5,117.1) scale(2.9274999999999998) rotate(0)"><path d="M10 0L20 10L10 20L0 10L10 0Z" fill="#d9fbd9"/></g><g transform="translate(644.05,117.1) scale(2.9274999999999998) rotate(0)"><path d="M10 0L20 10L10 20L0 10L10 0Z" fill="#effdef"/></g><g transform="translate(702.6,117.1) scale(2.9274999999999998) rotate(0)"><path d="M10 0L20 10L10 20L0 10L10 0Z" fill="#88b08d"/></g><g transform="translate(0,175.65) scale(2.9274999999999998) rotate(0)"><path d="M10 0L20 10L10 20L0 10L10 0Z" fill="#246e2e"/></g><g transform="translate(58.55,175.65) scale(2.9274999999999998) rotate(0)"><path d="M10 0L20 10L10 20L0 10L10 0Z" fill="#edfded"/></g><g transform="translate(117.1,175.65) scale(2.9274999999999998) rotate(0)"><path d="M10 0L20 10L10 20L0 10L10 0Z" fill="#bbd2be"/></g><g transform="translate(175.65,175.65) scale(2.9274999999999998) rotate(0)"><path d="M10 0L20 10L10 20L0 10L10 0Z" fill="#f4fef4"/></g><g transform="translate(234.2,175.65) scale(2.9274999999999998) rotate(0)"><path d="M10 0L20 10L10 20L0 10L10 0Z" fill="#8db392"/></g><g transform="translate(292.75,175.65) scale(2.9274999999999998) rotate(0)"><path d="M10 0L20 10L10 20L0 10L10 0Z" fill="#e1fce1"/></g><g transform="translate(351.3,175.65) scale(2.9274999999999998) rotate(0)"><path d="M10 0L20 10L10 20L0 10L10 0Z" fill="#206b2a"/></g><g transform="translate(409.85,175.65) scale(2.9274999999999998) rotate(0)"><path d="M10 0L20 10L10 20L0 10L10 0Z" fill="#9dbda1"/></g><g transform="translate(468.4,175.65) scale(2.9274999999999998) rotate(0)"><path d="M10 0L20 10L10 20L0 10L10 0Z" fill="#dbfcdb"/></g><g transform="translate(526.95,175.65) scale(2.9274999999999998) rotate(0)"><path d="M10 0L20 10L10 20L0 10L10 0Z" fill="#ddfcdd"/></g><g transform="translate(585.5,175.65) scale(2.9274999999999998) rotate(0)"><path d="M10 0L20 10L10 20L0 10L10 0Z" fill="#fefffe"/></g><g transform="translate(644.05,175.65) scale(2.9274999999999998) rotate(0)"><path d="M10 0L20 10L10 20L0 10L10 0Z" fill="#f0fef0"/></g><g transform="translate(702.6,175.65) scale(2.9274999999999998) rotate(0)"><path d="M10 0L20 10L10 20L0 10L10 0Z" fill="#d8fbd8"/></g><g transform="translate(0,234.2) scale(2.9274999999999998) rotate(0)"><path d="M10 0L20 10L10 20L0 10L10 0Z" fill="#c9dbcc"/></g><g transform="translate(58.55,234.2) scale(2.9274999999999998) rotate(0)"><path d="M10 0L20 10L10 20L0 10L10 0Z" fill="#f5fef5"/></g><g transform="translate(117.1,234.2) scale(2.9274999999999998) rotate(0)"><path d="M10 0L20 10L10 20L0 10L10 0Z" fill="#5e9465"/></g><g transform="translate(175.65,234.2) scale(2.9274999999999998) rotate(0)"><path d="M10 0L20 10L10 20L0 10L10 0Z" fill="#6b9d72"/></g><g transform="translate(234.2,234.2) scale(2.9274999999999998) rotate(0)"><path d="M10 0L20 10L10 20L0 10L10 0Z" fill="#b1cbb4"/></g><g transform="translate(292.75,234.2) scale(2.9274999999999998) rotate(0)"><path d="M10 0L20 10L10 20L0 10L10 0Z" fill="#e8fde8"/></g><g transform="translate(351.3,234.2) scale(2.9274999999999998) rotate(0)"><path d="M10 0L20 10L10 20L0 10L10 0Z" fill="#f3fef3"/></g><g transform="translate(409.85,234.2) scale(2.9274999999999998) rotate(0)"><path d="M10 0L20 10L10 20L0 10L10 0Z" fill="#ecf2ed"/></g><g transform="translate(468.4,234.2) scale(2.9274999999999998) rotate(0)"><path d="M10 0L20 10L10 20L0 10L10 0Z" fill="#d2fbd2"/></g><g transform="translate(526.95,234.2) scale(2.9274999999999998) rotate(0)"><path d="M10 0L20 10L10 20L0 10L10 0Z" fill="#e5fce5"/></g><g transform="translate(585.5,234.2) scale(2.9274999999999998) rotate(0)"><path d="M10 0L20 10L10 20L0 10L10 0Z" fill="#a3c2a7"/></g><g transform="translate(644.05,234.2) scale(2.9274999999999998) rotate(0)"><path d="M10 0L20 10L10 20L0 10L10 0Z" fill="#d3fbd3"/></g><g transform="translate(702.6,234.2) scale(2.9274999999999998) rotate(0)"><path d="M10 0L20 10L10 20L0 10L10 0Z" fill="#629769"/></g><g transform="translate(0,292.75) scale(2.9274999999999998) rotate(0)"><path d="M10 0L20 10L10 20L0 10L10 0Z" fill="#fcfffc"/></g><g transform="translate(58.55,292.75) scale(2.9274999999999998) rotate(0)"><path d="M10 0L20 10L10 20L0 10L10 0Z" fill="#e8fde8"/></g><g transform="translate(117.1,292.75) scale(2.9274999999999998) rotate(0)"><path d="M10 0L20 10L10 20L0 10L10 0Z" fill="#defcde"/></g><g transform="translate(175.65,292.75) scale(2.9274999999999998) rotate(0)"><path d="M10 0L20 10L10 20L0 10L10 0Z" fill="#e9f0ea"/></g><g transform="translate(234.2,292.75) scale(2.9274999999999998) rotate(0)"><path d="M10 0L20 10L10 20L0 10L10 0Z" fill="#d9fbd9"/></g><g transform="translate(292.75,292.75) scale(2.9274999999999998) rotate(0)"><path d="M10 0L20 10L10 20L0 10L10 0Z" fill="#afcab3"/></g><g transform="translate(351.3,292.75) scale(2.9274999999999998) rotate(0)"><path d="M10 0L20 10L10 20L0 10L10 0Z" fill="#196623"/></g><g transform="translate(409.85,292.75) scale(2.9274999999999998) rotate(0)"><path d="M10 0L20 10L10 20L0 10L10 0Z" fill="#f7fef7"/></g><g transform="translate(468.4,292.75) scale(2.9274999999999998) rotate(0)"><path d="M10 0L20 10L10 20L0 10L10 0Z" fill="#85ae8a"/></g><g transform="translate(526.95,292.75) scale(2.9274999999999998) rotate(0)"><path d="M10 0L20 10L10 20L0 10L10 0Z" fill="#d1fad1"/></g><g transform="translate(585.5,292.75) scale(2.9274999999999998) rotate(0)"><path d="M10 0L20 10L10 20L0 10L10 0Z" fill="#d4fbd4"/></g><g transform="translate(644.05,292.75) scale(2.9274999999999998) rotate(0)"><path d="M10 0L20 10L10 20L0 10L10 0Z" fill="#d3fbd3"/></g><g transform="translate(702.6,292.75) scale(2.9274999999999998) rotate(0)"><path d="M10 0L20 10L10 20L0 10L10 0Z" fill="#64986b"/></g><g transform="translate(0,351.3) scale(2.9274999999999998) rotate(0)"><path d="M10 0L20 10L10 20L0 10L10 0Z" fill="#f9fef9"/></g><g transform="translate(58.55,351.3) scale(2.9274999999999998) rotate(0)"><path d="M10 0L20 10L10 20L0 10L10 0Z" fill="#d3fbd3"/></g><g transform="translate(117.1,351.3) scale(2.9274999999999998) rotate(0)"><path d="M10 0L20 10L10 20L0 10L10 0Z" fill="#f1fef1"/></g><g transform="translate(175.65,351.3) scale(2.9274999999999998) rotate(0)"><path d="M10 0L20 10L10 20L0 10L10 0Z" fill="#cfdfd1"/></g><g transform="translate(234.2,351.3) scale(2.9274999999999998) rotate(0)"><path d="M10 0L20 10L10 20L0 10L10 0Z" fill="#fbfffb"/></g><g transform="translate(292.75,351.3) scale(2.9274999999999998) rotate(0)"><path d="M10 0L20 10L10 20L0 10L10 0Z" fill="#256e2e"/></g><g transform="translate(351.3,351.3) scale(2.9274999999999998) rotate(0)"><path d="M10 0L20 10L10 20L0 10L10 0Z" fill="#e8fde8"/></g><g transform="translate(409.85,351.3) scale(2.9274999999999998) rotate(0)"><path d="M10 0L20 10L10 20L0 10L10 0Z" fill="#cdfacd"/></g><g transform="translate(468.4,351.3) scale(2.9274999999999998) rotate(0)"><path d="M10 0L20 10L10 20L0 10L10 0Z" fill="#f8fef8"/></g><g transform="translate(526.95,351.3) scale(2.9274999999999998) rotate(0)"><path d="M10 0L20 10L10 20L0 10L10 0Z" fill="#78a57d"/></g><g transform="translate(585.5,351.3) scale(2.9274999999999998) rotate(0)"><path d="M10 0L20 10L10 20L0 10L10 0Z" fill="#83ac88"/></g><g transform="translate(644.05,351.3) scale(2.9274999999999998) rotate(0)"><path d="M10 0L20 10L10 20L0 10L10 0Z" fill="#cadccc"/></g><g transform="translate(702.6,351.3) scale(2.9274999999999998) rotate(0)"><path d="M10 0L20 10L10 20L0 10L10 0Z" fill="#a6c4a9"/></g><g transform="translate(0,409.85) scale(2.9274999999999998) rotate(0)"><path d="M10 0L20 10L10 20L0 10L10 0Z" fill="#eafdea"/></g><g transform="translate(58.55,409.85) scale(2.9274999999999998) rotate(0)"><path d="M10 0L20 10L10 20L0 10L10 0Z" fill="#6fa076"/></g><g transform="translate(117.1,409.85) scale(2.9274999999999998) rotate(0)"><path d="M10 0L20 10L10 20L0 10L10 0Z" fill="#74a27a"/></g><g transform="translate(175.65,409.85) scale(2.9274999999999998) rotate(0)"><path d="M10 0L20 10L10 20L0 10L10 0Z" fill="#ffffff"/></g><g transform="translate(234.2,409.85) scale(2.9274999999999998) rotate(0)"><path d="M10 0L20 10L10 20L0 10L10 0Z" fill="#81ab86"/></g><g transform="translate(292.75,409.85) scale(2.9274999999999998) rotate(0)"><path d="M10 0L20 10L10 20L0 10L10 0Z" fill="#defcde"/></g><g transform="translate(351.3,409.85) scale(2.9274999999999998) rotate(0)"><path d="M10 0L20 10L10 20L0 10L10 0Z" fill="#d1fbd1"/></g><g transform="translate(409.85,409.85) scale(2.9274999999999998) rotate(0)"><path d="M10 0L20 10L10 20L0 10L10 0Z" fill="#f4f7f4"/></g><g transform="translate(468.4,409.85) scale(2.9274999999999998) rotate(0)"><path d="M10 0L20 10L10 20L0 10L10 0Z" fill="#d6fbd6"/></g><g transform="translate(526.95,409.85) scale(2.9274999999999998) rotate(0)"><path d="M10 0L20 10L10 20L0 10L10 0Z" fill="#fefffe"/></g><g transform="translate(585.5,409.85) scale(2.9274999999999998) rotate(0)"><path d="M10 0L20 10L10 20L0 10L10 0Z" fill="#e0fce0"/></g><g transform="translate(644.05,409.85) scale(2.9274999999999998) rotate(0)"><path d="M10 0L20 10L10 20L0 10L10 0Z" fill="#3c7d44"/></g><g transform="translate(702.6,409.85) scale(2.9274999999999998) rotate(0)"><path d="M10 0L20 10L10 20L0 10L10 0Z" fill="#eafdea"/></g></g></svg>