<?xml version="1.0" standalone="no"?><svg xmlns:xlink="http://www.w3.org/1999/xlink" xmlns="http://www.w3.org/2000/svg" viewBox="0 0 1000 666.6666666666666" preserveAspectRatio="xMaxYMax slice"><g transform="scale(1.4232849416453173)"><rect x="0" y="0" width="761.15" height="468.4" fill="#ffffff"/><g transform="translate(117.1,0) scale(2.9274999999999998) rotate(0)"><path d="M10 0L20 10L10 20L0 10L10 0Z" fill="#479d53"/></g><g transform="translate(234.2,0) scale(2.9274999999999998) rotate(0)"><path d="M10 0L20 10L10 20L0 10L10 0Z" fill="#3c9748"/></g><g transform="translate(292.75,0) scale(2.9274999999999998) rotate(0)"><path d="M10 0L20 10L10 20L0 10L10 0Z" fill="#ff9e7e"/></g><g transform="translate(351.3,0) scale(2.9274999999999998) rotate(0)"><path d="M10 0L20 10L10 20L0 10L10 0Z" fill="#359342"/></g><g transform="translate(409.85,0) scale(2.9274999999999998) rotate(0)"><path d="M10 0L20 10L10 20L0 10L10 0Z" fill="#fdfefd"/></g><g transform="translate(468.4,0) scale(2.9274999999999998) rotate(0)"><path d="M10 0L20 10L10 20L0 10L10 0Z" fill="#ffd3c4"/></g><g transform="translate(585.5,0) scale(2.9274999999999998) rotate(0)"><path d="M10 0L20 10L10 20L0 10L10 0Z" fill="#ff9571"/></g><g transform="translate(644.05,0) scale(2.9274999999999998) rotate(0)"><path d="M10 0L20 10L10 20L0 10L10 0Z" fill="#8cc193"/></g><g transform="translate(702.6,0) scale(2.9274999999999998) rotate(0)"><path d="M10 0L20 10L10 20L0 10L10 0Z" fill="#c2dec5"/></g><g transform="translate(0,58.55) scale(2.9274999999999998) rotate(0)"><path d="M10 0L20 10L10 20L0 10L10 0Z" fill="#ffc8b6"/></g><g transform="translate(58.55,58.55) scale(2.9274999999999998) rotate(0)"><path d="M10 0L20 10L10 20L0 10L10 0Z" fill="#8ac192"/></g><g transform="translate(117.1,58.55) scale(2.9274999999999998) rotate(0)"><path d="M10 0L20 10L10 20L0 10L10 0Z" fill="#d3e7d6"/></g><g transform="translate(234.2,58.55) scale(2.9274999999999998) rotate(0)"><path d="M10 0L20 10L10 20L0 10L10 0Z" fill="#ffffff"/></g><g transform="translate(292.75,58.55) scale(2.9274999999999998) rotate(0)"><path d="M10 0L20 10L10 20L0 10L10 0Z" fill="#ffc4b0"/></g><g transform="translate(351.3,58.55) scale(2.9274999999999998) rotate(0)"><path d="M10 0L20 10L10 20L0 10L10 0Z" fill="#fff7f5"/></g><g transform="translate(409.85,58.55) scale(2.9274999999999998) rotate(0)"><path d="M10 0L20 10L10 20L0 10L10 0Z" fill="#fff6f3"/></g><g transform="translate(468.4,58.55) scale(2.9274999999999998) rotate(0)"><path d="M10 0L20 10L10 20L0 10L10 0Z" fill="#eff6f0"/></g><g transform="translate(585.5,58.55) scale(2.9274999999999998) rotate(0)"><path d="M10 0L20 10L10 20L0 10L10 0Z" fill="#8ac192"/></g><g transform="translate(644.05,58.55) scale(2.9274999999999998) rotate(0)"><path d="M10 0L20 10L10 20L0 10L10 0Z" fill="#fffbf9"/></g><g transform="translate(0,117.1) scale(2.9274999999999998) rotate(0)"><path d="M10 0L20 10L10 20L0 10L10 0Z" fill="#ffa182"/></g><g transform="translate(58.55,117.1) scale(2.9274999999999998) rotate(0)"><path d="M10 0L20 10L10 20L0 10L10 0Z" fill="#7cb984"/></g><g transform="translate(117.1,117.1) scale(2.9274999999999998) rotate(0)"><path d="M10 0L20 10L10 20L0 10L10 0Z" fill="#fffbfa"/></g><g transform="translate(175.65,117.1) scale(2.9274999999999998) rotate(0)"><path d="M10 0L20 10L10 20L0 10L10 0Z" fill="#ff9977"/></g><g transform="translate(292.75,117.1) scale(2.9274999999999998) rotate(0)"><path d="M10 0L20 10L10 20L0 10L10 0Z" fill="#ffb399"/></g><g transform="translate(351.3,117.1) scale(2.9274999999999998) rotate(0)"><path d="M10 0L20 10L10 20L0 10L10 0Z" fill="#fdfefd"/></g><g transform="translate(468.4,117.1) scale(2.9274999999999998) rotate(0)"><path d="M10 0L20 10L10 20L0 10L10 0Z" fill="#ffc2ae"/></g><g transform="translate(585.5,117.1) scale(2.9274999999999998) rotate(0)"><path d="M10 0L20 10L10 20L0 10L10 0Z" fill="#8bc192"/></g><g transform="translate(58.55,175.65) scale(2.9274999999999998) rotate(0)"><path d="M10 0L20 10L10 20L0 10L10 0Z" fill="#f6faf6"/></g><g transform="translate(117.1,175.65) scale(2.9274999999999998) rotate(0)"><path d="M10 0L20 10L10 20L0 10L10 0Z" fill="#5ca866"/></g><g transform="translate(234.2,175.65) scale(2.9274999999999998) rotate(0)"><path d="M10 0L20 10L10 20L0 10L10 0Z" fill="#fffefe"/></g><g transform="translate(351.3,175.65) scale(2.9274999999999998) rotate(0)"><path d="M10 0L20 10L10 20L0 10L10 0Z" fill="#66ad70"/></g><g transform="translate(468.4,175.65) scale(2.9274999999999998) rotate(0)"><path d="M10 0L20 10L10 20L0 10L10 0Z" fill="#d7e9d9"/></g><g transform="translate(585.5,175.65) scale(2.9274999999999998) rotate(0)"><path d="M10 0L20 10L10 20L0 10L10 0Z" fill="#e2f0e4"/></g><g transform="translate(644.05,175.65) scale(2.9274999999999998) rotate(0)"><path d="M10 0L20 10L10 20L0 10L10 0Z" fill="#ffc7b4"/></g><g transform="translate(702.6,175.65) scale(2.9274999999999998) rotate(0)"><path d="M10 0L20 10L10 20L0 10L10 0Z" fill="#d9ebdb"/></g><g transform="translate(0,234.2) scale(2.9274999999999998) rotate(0)"><path d="M10 0L20 10L10 20L0 10L10 0Z" fill="#8ec295"/></g><g transform="translate(58.55,234.2) scale(2.9274999999999998) rotate(0)"><path d="M10 0L20 10L10 20L0 10L10 0Z" fill="#fff9f7"/></g><g transform="translate(175.65,234.2) scale(2.9274999999999998) rotate(0)"><path d="M10 0L20 10L10 20L0 10L10 0Z" fill="#ffe6de"/></g><g transform="translate(234.2,234.2) scale(2.9274999999999998) rotate(0)"><path d="M10 0L20 10L10 20L0 10L10 0Z" fill="#e8f3e9"/></g><g transform="translate(292.75,234.2) scale(2.9274999999999998) rotate(0)"><path d="M10 0L20 10L10 20L0 10L10 0Z" fill="#d7ead9"/></g><g transform="translate(351.3,234.2) scale(2.9274999999999998) rotate(0)"><path d="M10 0L20 10L10 20L0 10L10 0Z" fill="#ffa88b"/></g><g transform="translate(409.85,234.2) scale(2.9274999999999998) rotate(0)"><path d="M10 0L20 10L10 20L0 10L10 0Z" fill="#c8e1cb"/></g><g transform="translate(585.5,234.2) scale(2.9274999999999998) rotate(0)"><path d="M10 0L20 10L10 20L0 10L10 0Z" fill="#ffbda7"/></g><g transform="translate(702.6,234.2) scale(2.9274999999999998) rotate(0)"><path d="M10 0L20 10L10 20L0 10L10 0Z" fill="#88bf8f"/></g><g transform="translate(0,292.75) scale(2.9274999999999998) rotate(0)"><path d="M10 0L20 10L10 20L0 10L10 0Z" fill="#ffa384"/></g><g transform="translate(58.55,292.75) scale(2.9274999999999998) rotate(0)"><path d="M10 0L20 10L10 20L0 10L10 0Z" fill="#ffede7"/></g><g transform="translate(117.1,292.75) scale(2.9274999999999998) rotate(0)"><path d="M10 0L20 10L10 20L0 10L10 0Z" fill="#2a8d37"/></g><g transform="translate(175.65,292.75) scale(2.9274999999999998) rotate(0)"><path d="M10 0L20 10L10 20L0 10L10 0Z" fill="#31913e"/></g><g transform="translate(234.2,292.75) scale(2.9274999999999998) rotate(0)"><path d="M10 0L20 10L10 20L0 10L10 0Z" fill="#ff9e7d"/></g><g transform="translate(292.75,292.75) scale(2.9274999999999998) rotate(0)"><path d="M10 0L20 10L10 20L0 10L10 0Z" fill="#65ad6f"/></g><g transform="translate(351.3,292.75) scale(2.9274999999999998) rotate(0)"><path d="M10 0L20 10L10 20L0 10L10 0Z" fill="#6eb177"/></g><g transform="translate(409.85,292.75) scale(2.9274999999999998) rotate(0)"><path d="M10 0L20 10L10 20L0 10L10 0Z" fill="#fffefe"/></g><g transform="translate(526.95,292.75) scale(2.9274999999999998) rotate(0)"><path d="M10 0L20 10L10 20L0 10L10 0Z" fill="#5aa664"/></g><g transform="translate(585.5,292.75) scale(2.9274999999999998) rotate(0)"><path d="M10 0L20 10L10 20L0 10L10 0Z" fill="#e8f3ea"/></g><g transform="translate(702.6,292.75) scale(2.9274999999999998) rotate(0)"><path d="M10 0L20 10L10 20L0 10L10 0Z" fill="#acd2b1"/></g><g transform="translate(175.65,351.3) scale(2.9274999999999998) rotate(0)"><path d="M10 0L20 10L10 20L0 10L10 0Z" fill="#ffd0c0"/></g><g transform="translate(234.2,351.3) scale(2.9274999999999998) rotate(0)"><path d="M10 0L20 10L10 20L0 10L10 0Z" fill="#40994c"/></g><g transform="translate(292.75,351.3) scale(2.9274999999999998) rotate(0)"><path d="M10 0L20 10L10 20L0 10L10 0Z" fill="#ffb69d"/></g><g transform="translate(351.3,351.3) scale(2.9274999999999998) rotate(0)"><path d="M10 0L20 10L10 20L0 10L10 0Z" fill="#d5e9d8"/></g><g transform="translate(409.85,351.3) scale(2.9274999999999998) rotate(0)"><path d="M10 0L20 10L10 20L0 10L10 0Z" fill="#fff5f2"/></g><g transform="translate(468.4,351.3) scale(2.9274999999999998) rotate(0)"><path d="M10 0L20 10L10 20L0 10L10 0Z" fill="#ffcfbf"/></g><g transform="translate(526.95,351.3) scale(2.9274999999999998) rotate(0)"><path d="M10 0L20 10L10 20L0 10L10 0Z" fill="#ffdacd"/></g><g transform="translate(644.05,351.3) scale(2.9274999999999998) rotate(0)"><path d="M10 0L20 10L10 20L0 10L10 0Z" fill="#dcecdf"/></g><g transform="translate(175.65,409.85) scale(2.9274999999999998) rotate(0)"><path d="M10 0L20 10L10 20L0 10L10 0Z" fill="#ffd1c2"/></g><g transform="translate(234.2,409.85) scale(2.9274999999999998) rotate(0)"><path d="M10 0L20 10L10 20L0 10L10 0Z" fill="#ffd5c7"/></g><g transform="translate(351.3,409.85) scale(2.9274999999999998) rotate(0)"><path d="M10 0L20 10L10 20L0 10L10 0Z" fill="#fffbf9"/></g><g transform="translate(409.85,409.85) scale(2.9274999999999998) rotate(0)"><path d="M10 0L20 10L10 20L0 10L10 0Z" fill="#ffb79f"/></g><g transform="translate(468.4,409.85) scale(2.9274999999999998) rotate(0)"><path d="M10 0L20 10L10 20L0 10L10 0Z" fill="#ffe7df"/></g><g transform="translate(526.95,409.85) scale(2.9274999999999998) rotate(0)"><path d="M10 0L20 10L10 20L0 10L10 0Z" fill="#288c35"/></g><g transform="translate(585.5,409.85) scale(2.9274999999999998) rotate(0)"><path d="M10 0L20 10L10 20L0 10L10 0Z" fill="#ffb79f"/></g><g transform="translate(644.05,409.85) scale(2.9274999999999998) rotate(0)"><path d="M10 0L20 10L10 20L0 10L10 0Z" fill="#ffbea7"/></g><g transform="translate(702.6,409.85) scale(2.9274999999999998) rotate(0)"><path d="M10 0L20 10L10 20L0 10L10 0Z" fill="#c5e0c8"/></g></g></svg>